<svg xmlns="http://www.w3.org/2000/svg" viewBox="0 0 107.33 113.64"><defs><style>.cls-1{isolation:isolate;}.cls-2{opacity:0.05;}.cls-2,.cls-4{mix-blend-mode:multiply;}.cls-3{fill:#bcaf96;}.cls-4{opacity:0.1;}</style></defs><title>landmarks_eiffel_tower</title><g class="cls-1"><g id="eiffel_tower" data-name="eiffel tower"><ellipse class="cls-2" cx="53.67" cy="109.14" rx="53.67" ry="4.5"/><polygon class="cls-3" points="66.17 61.42 40.17 61.42 40.17 64.85 41.17 64.85 41.17 65.86 65.17 65.86 65.17 64.85 66.17 64.85 66.17 61.42"/><path class="cls-3" d="M605.5,560.78c-0.54.3-1.46,0.79-2,1.13l0.56,0.83a26.32,26.32,0,0,1,14.57-4.05h0.54a30.61,30.61,0,0,1,3.82.3v0h0.23c0.61,0.09,1.21.2,1.8,0.33v0.13h0.55a25.73,25.73,0,0,1,3.42,1.07v0.06h0.15a21.77,21.77,0,0,1,3.92,2l0.55-.83A22.51,22.51,0,0,0,630,559.9v-4.72h0.74V555h0.43l-1.17-4.28h0v-1.08h-1v1.08h-3v-1.08h-1v1.08H622v-1.08h-1v1.08h-3.07v-1.21h-1v1.21H614v-1.21h-1v1.21H610v-1.21h-1v1.21H608v-1.21h-1v1.21h-0.26l-0.27,2.61Zm3.47-5.71v4.18l-0.94.35v-4.54H609Zm1,0h1v3.57l-1,.29v-3.86Zm2,0h1v3.11l-1,.21v-3.32Zm2,0H615v2.81L614,558V555.1Zm1.94,0h0.94v2.63l-0.94.07v-2.7Zm5,0v2.64l-1,0v-2.6h1Zm6,0v3.66l-0.94-.24v-3.43H627Zm2-3.4V554h-3v-2.28h3Zm-4,0V554H622v-2.28h3.08Zm-4.08,0V554h-3.07v-2.28H621Zm-4.07,0V554H614v-2.28h2.88Zm-3.88,0V554H610v-2.28H613Zm-4.08,0V554H608v-2.28H609ZM607,553.92V554h0ZM606.09,555h0.57v0H607V560c-0.32.14-.63,0.29-0.94,0.45V555Zm12.57,2.64-0.74,0v-2.59h1v2.57h-0.29Zm3.32,0.19v-2.74h1V558Zm2,0.28v-3h1v3.19Zm4,1v-4h1v4.33C628.7,559.37,628.36,559.26,628,559.14Z" transform="translate(-565.33 -466.86)"/><rect class="cls-3" x="48.71" y="12.2" width="9.01" height="2.88"/><rect class="cls-3" x="49.74" y="10.13" width="6.94" height="2.25"/><polygon class="cls-3" points="55.56 10.82 50.87 10.82 50.87 9.32 53.21 5.32 55.56 9.32 55.56 10.82"/><rect class="cls-3" x="52.71" width="1" height="7.51"/><path class="cls-3" d="M643.54,571.54l-1.28-3.11h0l-0.28-.67c-1-2.52-1.55-3.78-2.55-6.28l-0.13-.34h0c-0.84-2.1-1.33-3.34-2.18-5.6L637,555.2c-0.65-1.72-1.08-2.87-1.7-4.61l-0.22-.63-0.14-.4-0.08-.23h0c-0.59-1.69-1-2.79-1.49-4.42h0l-0.22-.67c-0.69-2.13-1.09-3.42-1.71-5.52l-0.18-.62,0-.1c-0.71-2.42-1.12-3.83-1.71-6h0l-0.11-.41-0.12-.44c-0.74-2.76-1.11-4.22-1.73-6.82l-0.1-.42c-0.4-1.68-.66-2.83-0.92-4.13h0c-0.11-.52-0.21-1.06-0.33-1.68l-0.08-.42c-0.33-1.71-.5-2.78-0.75-4.45h0l-0.09-.62c-0.36-2.46-.54-3.83-0.87-6.65l0-.4h0c-0.27-2.37-.41-3.78-0.65-6.31l0-.43h0c-0.22-2.42-.34-3.84-0.53-6.41l0-.45h0c-0.17-2.26-.1-3.66-0.24-6H623v-5h-8.85v5c-0.13,2.3-.07,3.7-0.24,6h0l0,0.45c-0.19,2.56-.3,4-0.53,6.41h0l0,0.43c-0.23,2.54-.37,3.94-0.65,6.31h0l0,0.4c-0.32,2.82-.5,4.18-0.87,6.65l-0.09.62h0c-0.25,1.67-.42,2.74-0.75,4.45l-0.08.42c-0.12.61-.23,1.16-0.33,1.68h0c-0.26,1.29-.52,2.45-0.92,4.13l-0.1.42c-0.62,2.6-1,4.05-1.73,6.82l-0.12.44-0.11.41h0c-0.6,2.21-1,3.63-1.71,6l0,0.1-0.18.62c-0.62,2.1-1,3.39-1.71,5.52l-0.22.67h0c-0.53,1.64-.9,2.73-1.49,4.42h0l-0.08.23L602,550l-0.22.63c-0.61,1.74-1,2.89-1.7,4.61l-0.13.35c-0.86,2.26-1.34,3.5-2.18,5.6h0l-0.13.34c-1,2.5-1.51,3.75-2.55,6.28l-0.28.67h0l-1.28,3.11-1.23,3H593c1.69,0,2.92,0,4.11,0s2.13,0,3.47,0h0.35l0.12-.42c0.79-2.23,1.2-3.42,1.86-5.43h0l0.12-.35c0.72-2.18,1.11-3.38,1.73-5.39h0l0.12-.37c0.68-2.19,1-3.4,1.64-5.44h0l0.11-.39c0.72-2.44,1.07-3.69,1.78-6.2v0c0.61-2.18,1-3.48,1.55-5.62h0l0.1-.36c0.71-2.66,1-4,1.69-6.67l0.15-.64c0.45-1.89.73-3.15,1.15-5.09h0l0.08-.4c0.59-2.78.85-4.11,1.34-6.79l0.1-.55h0c0.41-2.24.63-3.57,1-5.93l0.09-.55h0c0.3-2,.48-3.26.73-5.2h0l0.05-.41c0.31-2.47.46-3.81,0.69-6.12h0l0-.41c0.24-2.44.36-3.79,0.53-6.14h0l0-.43c0.2-2.77.28-4.13,0.4-6.92l0-.54h0c0.1-2.15.14-3.49,0.18-5.73h0.24c0,2.06.14,3.71,0.23,5.73h0l0,0.54c0.13,2.78.2,4.14,0.4,6.92l0,0.43h0c0.17,2.34.29,3.69,0.53,6.14l0,0.41h0c0.23,2.3.38,3.65,0.69,6.12l0.05,0.41h0c0.25,1.95.42,3.24,0.73,5.2h0l0.09,0.55c0.37,2.36.59,3.68,1,5.93h0l0.1,0.55c0.49,2.68.75,4,1.34,6.79l0.08,0.4h0c0.41,1.94.7,3.2,1.15,5.09l0.15,0.64c0.65,2.71,1,4,1.69,6.67l0.1,0.36h0c0.57,2.14.94,3.44,1.55,5.62v0c0.7,2.51,1.06,3.76,1.78,6.2l0.11,0.39h0c0.6,2,1,3.25,1.64,5.44l0.12,0.38h0c0.62,2,1,3.2,1.73,5.39l0.12,0.35h0c0.66,2,1.07,3.2,1.86,5.43l0.12,0.5h0.35c1.33,0,2.38,0,3.47,0s2.42,0,4.11,0h0.75Zm-3.1-4.9-3.22-1.55,2.54-.12Zm-0.8-2-2.29.11,1.54-1.95Zm-2.78.11-0.75-2.14,2.58-.17Zm1.39-3.58-2.58.18-0.68-2,3.12,1.45Zm-0.32-.8-2.65-1.22,2.09-.18Zm-0.66-1.68-1.94.17,1.35-1.71Zm-0.75-2-1.69,2.15c-0.3-.88-0.48-1.44-0.72-2.16,0.68-.07,1.38-0.15,2.32-0.22Zm-0.57-1.49c-0.83.07-1.47,0.14-2.1,0.21l-0.15,0c-0.24-.73-0.42-1.29-0.71-2.19h0l2.7,1.39Zm-0.81-2.18,0.43,1.15-2-1Zm-0.1-.28c-0.7.06-1.16,0.11-1.85,0.19l1.34-1.6ZM634.37,551l-1.54,1.84c-0.25-.77-0.42-1.32-0.62-2h0c0.59-.06,1.2-0.12,2-0.18Zm-0.56-1.6c-0.7,0-1.23.11-1.77,0.16l-0.22,0c-0.21-.7-0.38-1.24-0.62-2.06l2.42,1.35Zm-0.34-1-2-1.09c0.58,0,1-.07,1.57-0.09ZM633,547c-0.64,0-1.05.05-1.7,0.1,0.57-.65.81-1,1.24-1.5Zm-0.6-1.83c-0.55.65-.77,1-1.38,1.68-0.23-.76-0.39-1.28-0.59-1.94,0.54,0,1.1,0,1.88,0Zm-0.49-1.54H630c-0.21-.71-0.38-1.28-0.62-2.13l2.23,1.34Zm-0.37-1.17-1.88-1.13,1.55,0.06Zm-0.42-1.37-1.4-.06,1.05-1.08Zm-0.44-1.47-1.35,1.4h0c-0.28-1-.45-1.57-0.67-2.39l1.78,0.07ZM630,537.34l-1.75-.06c-0.21-.77-0.37-1.37-0.6-2.27l2.06,1.34Zm-0.4-1.39-1.75-1.13,1.43,0Zm-0.41-1.43h-1.32l1-1.06Zm-0.41-1.47-1.29,1.36c-0.25-1-.41-1.58-0.61-2.4l1.61,0Zm-0.65-2.4-1.45,0h-0.12c-0.2-.83-0.35-1.46-0.59-2.45l1.81,1.06ZM627.68,529l-1.38-.8,1.15-.08Zm-0.31-1.2-1.26.09,1-1Zm-0.62-2.52,0.33,1.36-1.24,1.17c-0.22-1-.36-1.58-0.54-2.38C625.66,525.35,626.06,525.3,626.75,525.25Zm-0.6-2.56,0.29,1.26c-0.64.06-1,.1-1.37,0.15h0c-0.17-.81-0.3-1.42-0.49-2.36Zm-0.07-.31-1.27-.74,1.08-.11Zm-0.26-1.15-0.92.09,0.78-.75ZM625.35,519c0.09,0.46.18,0.9,0.27,1.32l-1.11,1.08h0c-0.19-1-.31-1.57-0.45-2.34Zm-0.25-1.28-1.28.06h0c-0.13-.74-0.22-1.3-0.36-2.2l1.46,0.89C624.94,516.82,625,517.24,625.1,517.69Zm-0.29-1.56-1-.58,0.86,0Zm-0.14-.81c-0.54,0-.79,0-1.13-0.07l1-.9C624.58,514.68,624.63,515,624.68,515.31Zm-0.2-1.26-1.14,1.06c-0.13-.85-0.22-1.42-0.32-2.16a12,12,0,0,0,1.32.17Zm-0.33-2.25a9.23,9.23,0,0,1-1.19-.18l-0.12,0c-0.1-.76-0.18-1.35-0.3-2.28l1.42,1.13C624,510.88,624.08,511.33,624.15,511.8Zm-0.23-1.64-1.06-.84a8.11,8.11,0,0,0,1,.16Zm-0.13-1a7.81,7.81,0,0,1-1.08-.19l1-.78C623.71,508.54,623.75,508.87,623.79,509.18Zm-0.16-1.25-1.15.95c-0.12-.94-0.19-1.54-0.28-2.33a8.56,8.56,0,0,0,1.29.22Q623.57,507.38,623.63,507.92Zm-0.46-4c0,0.46.1,0.94,0.16,1.47a6,6,0,0,1-1.14-.23l-0.14,0c-0.09-.81-0.15-1.44-0.25-2.44Zm0-.3-1-.87a7,7,0,0,0,.88.14ZM623,502.6a6.67,6.67,0,0,1-1-.16l0.92-.68Zm-0.11-1.13-1.15.86c-0.09-1-.15-1.62-0.23-2.44a9,9,0,0,0,1.24.16Zm-1.39-2.93-0.11,0c-0.07-.83-0.12-1.47-0.2-2.47l1.3,1.23c0,0.45.08,0.93,0.13,1.45A5.8,5.8,0,0,1,621.53,498.54Zm-6.62-6.64c0-.62.09-1.19,0.12-1.72l1.14-.88h0c-0.05,1-.09,1.66-0.14,2.51h0A7.84,7.84,0,0,1,614.92,491.9Zm1.08,1.25c-0.06.85-.1,1.49-0.18,2.52h0l-1.11-.72c0-.54.09-1.1,0.13-1.73A11.69,11.69,0,0,0,616,493.15Zm-0.14-3.83-0.8.62,0-.59Zm-0.74-.29,0-.73L616,489C615.83,489,615.62,489,615.12,489Zm0.06-1c0-.56.07-1.15,0.11-1.82,0.67,0,.92,0,1.08,0,0,1-.07,1.63-0.13,2.74Zm7.25,8.1c0,0.28,0,.55.07,0.84l-1-.92A8.71,8.71,0,0,0,622.43,496.13Zm-0.89-.4,0.82-.53,0,0.6C622,495.79,621.73,495.76,621.54,495.73Zm0.38-6.38,0,0.59-0.8-.62ZM621,489l0.84-.7,0,0.73C621.4,489,621.19,489,621,489Zm0.72-2.78c0,0.67.07,1.25,0.11,1.82l-1.06.89c-0.06-1.11-.09-1.76-0.13-2.74C620.81,486.2,621.06,486.21,621.73,486.22Zm-0.89,3.08,1.14,0.88c0,0.53.08,1.09,0.12,1.72a7.84,7.84,0,0,1-1.11-.08h0c-0.05-.85-0.09-1.49-0.14-2.51h0Zm1.37,3.93c0,0.63.09,1.19,0.13,1.73l-1.11.72h0c-0.08-1-.12-1.67-0.18-2.52A11.69,11.69,0,0,0,622.21,493.23Zm-7.54,2,0.82,0.53c-0.19,0-.42.05-0.86,0.08Zm-0.08.93a8.71,8.71,0,0,0,.92-0.08l-1,.92C614.54,496.69,614.56,496.41,614.59,496.13Zm-0.1,1.13,1.3-1.23c-0.08,1-.12,1.64-0.2,2.47l-0.11,0a5.8,5.8,0,0,1-1.13.17C614.41,498.19,614.45,497.71,614.49,497.26ZM614.24,500a9,9,0,0,0,1.24-.16c-0.07.83-.13,1.45-0.23,2.44l-1.15-.86Zm-0.16,1.71,0.92,0.68a6.68,6.68,0,0,1-1,.16ZM614,502.92a7,7,0,0,0,.88-0.14l-1,.87Zm-0.11,1,1.37-1.25c-0.1,1-.16,1.63-0.25,2.44l-0.14,0a6,6,0,0,1-1.14.23C613.74,504.89,613.79,504.41,613.84,504Zm-0.32,2.8a8.56,8.56,0,0,0,1.29-.22c-0.09.79-.16,1.4-0.28,2.33l-1.15-.95Q613.45,507.38,613.52,506.75Zm-0.17,1.45,1,0.78a7.82,7.82,0,0,1-1.09.19Zm-0.16,1.28a8.1,8.1,0,0,0,1-.16l-1.06.84Zm-0.13,1,1.42-1.13c-0.12.93-.19,1.52-0.3,2.28l-0.12,0a9.23,9.23,0,0,1-1.19.18C612.94,511.33,613,510.88,613.06,510.45Zm-0.38,2.67a12,12,0,0,0,1.32-.17c-0.1.74-.19,1.31-0.32,2.16l-1.14-1.06Zm-0.18,1.22,1,0.9c-0.34,0-.59.05-1.13,0.07C612.39,515,612.44,514.68,612.5,514.34Zm-0.2,1.25,0.86,0-1,.58Zm-0.15.85,1.46-.89c-0.14.9-.23,1.46-0.36,2.2h0l-1.28-.06C612,517.24,612.08,516.82,612.15,516.44ZM611.67,519L613,519c-0.14.77-.26,1.37-0.45,2.34h0l-1.11-1.08C611.49,519.86,611.58,519.43,611.67,519Zm-0.33,1.61,0.78,0.75-0.92-.09Zm-0.21,1,1.08,0.11-1.27.74Zm-0.26,1.16,1.61-.95c-0.19.94-.32,1.55-0.49,2.36h0c-0.36,0-.73-0.09-1.37-0.15Zm-0.6,2.56c0.69,0.06,1.08.1,1.45,0.15-0.18.81-.32,1.42-0.54,2.38l-1.24-1.17Zm-0.4,1.64,1,1-1.26-.09Zm-0.3,1.2,1.15,0.08-1.38.8Zm-0.32,1.22,1.81-1.06c-0.23,1-.38,1.62-0.59,2.45h-0.12l-1.46,0ZM608.55,532l1.61,0c-0.2.82-.36,1.44-0.61,2.4l-1.29-1.36Zm-0.4,1.48,1,1.06h-1.32Zm-0.39,1.4,1.43,0L607.44,536Zm-0.43,1.5,2.06-1.34c-0.24.9-.4,1.51-0.6,2.27l-1.75.06Zm-0.68,2.32,1.78-.07c-0.22.81-.39,1.42-0.67,2.39h0l-1.35-1.4Zm-0.37,1.25,1.05,1.08-1.4.06Zm-0.43,1.43,1.55-.06-1.88,1.13Zm-0.45,1.45,2.23-1.34c-0.25.85-.41,1.42-0.62,2.13h-1.86Zm-0.66,2.08c0.79,0,1.34,0,1.88,0-0.2.66-.36,1.18-0.59,1.94-0.61-.7-0.83-1-1.38-1.68Zm-0.22.67c0.43,0.52.66,0.86,1.24,1.5-0.65,0-1.06-.07-1.7-0.1ZM604,547.23c0.6,0,1,.05,1.57.09l-2,1.09Zm-0.56,1.63,2.42-1.35c-0.24.82-.41,1.37-0.62,2.06l-0.22,0c-0.53-.05-1.07-0.11-1.77-0.16Zm-0.63,1.79c0.83,0.06,1.43.12,2,.18h0c-0.21.68-.38,1.22-0.62,2L602.65,551Zm-0.27.75,1.34,1.6c-0.69-.08-1.15-0.13-1.85-0.19Zm-0.61,1.7,1.54,0.15-2,1Zm-0.6,1.6,2.7-1.39h0c-0.29.9-.47,1.46-0.71,2.19l-0.15,0c-0.63-.07-1.27-0.14-2.1-0.21Zm-0.7,1.83c0.94,0.08,1.64.15,2.32,0.22-0.24.72-.42,1.28-0.72,2.16l-1.69-2.15Zm-0.25.65,1.35,1.71-1.94-.17ZM599.64,559l2.09,0.18-2.65,1.22Zm-0.73,1.84,3.12-1.45-0.68,2-2.58-.18Zm2,1.79-0.75,2.14-1.83-2.31Zm-2.8.2,1.54,1.95-2.29-.11ZM597.26,565l2.54,0.12-3.22,1.55Zm1.39,2.28-2.29-.06,0-.09,3.57-1.73-0.68,1.9Zm0.94,0,0.63-1.77,1.45,1.83Zm2.69,0.08h-0.11l-1.74-2.21,0,0,2.51,0.12Zm0.78-2.39-2.07-.1,2.49-1.23Zm0.55-1.73-3.13,1.53,0.72-2.08h0.05l2.47,0.17Zm-2-1.81,0.61-1.82,1.55,2Zm2.53,0-1.71-2.19,2.32,0.2Zm0.69-2.27-2-.17,2.36-1.11Zm0.5-1.67-2.85,1.33,0.67-2c0.67,0.07,1.38.14,2.33,0.22Zm0.52-1.75c-0.94-.07-1.64-0.14-2.29-0.21,0.22-.69.4-1.24,0.66-2.07l1.71,2Zm0.2-.67-1.42-1.69c0.64,0.07,1.11.12,1.86,0.17Zm0.52-1.8c-0.84-.06-1.33-0.12-2.13-0.2l2.56-1.34Zm0.55-1.94-2.67,1.38,0.57-1.86c0.6,0.06,1.26.13,2.18,0.18Zm0.44-1.57c-0.91-.05-1.58-0.11-2.15-0.17,0.22-.73.39-1.3,0.65-2.19l1.65,1.84Zm0.26-.92-1.29-1.45c0.54,0,1,.07,1.68.09Zm0.46-1.66c-0.73,0-1.18,0-1.75-.08l2.1-1.19Zm0.46-1.67-2.55,1.42c0.24-.83.41-1.37,0.62-2.07,0.57,0,1.19,0,2.1,0Zm0.53-2-1.7,0h-0.37c0.21-.7.37-1.26,0.6-2.08l1.58,1.63Zm0.2-.77L608,541.27l1.89-.07Zm0.49-1.89-1.56.06,1.82-1.11Zm0.35-1.39L608,540.94c0.27-.95.44-1.55,0.65-2.35h0.15l1.78-.06Zm0.56-2.31-1.89.06c0.21-.78.37-1.39,0.61-2.32l1.46,1.52Zm0.27-1.12-1.21-1.27,1.51,0Zm0.37-1.6h-1.37l1.59-1Zm0.3-1.38-2.1,1.37c0.26-1,.41-1.63.62-2.47l1.71,0Zm0.5-2.36-1.67,0c0.21-.85.35-1.48,0.59-2.5h0l1.32,1.24Zm0.33-1.58-1-.94,1.16,0.07Zm0.24-1.17-1.27-.09,1.45-.86Zm0.24-1.25-1.79,1.05c0.22-1,.36-1.59.54-2.4,0.37,0,.77.09,1.48,0.15Zm0.46-2.49c-0.7-.05-1.1-0.1-1.44-0.14,0.17-.79.29-1.4,0.47-2.31l1.2,1.17Zm0.28-1.57-1-1,1.15,0.11Zm0.2-1.17-1.06-.1,1.19-.71Zm0.18-1.09-1.55.91c0.19-.94.3-1.54,0.44-2.3l1.32,0.07C614.4,519.58,614.33,520,614.26,520.43Zm0.41-2.62-1.29-.06c0.13-.76.22-1.32,0.37-2.25h0l1.11,1Q614.78,517.13,614.67,517.82Zm0.24-1.57-0.83-.77,0.95,0Zm0.16-1.12-0.86,0,0.93-.58Zm0.11-.81-1.38.84c0.14-.9.22-1.48,0.33-2.24l0.1,0a9.59,9.59,0,0,1,1.16-.17C615.31,513.3,615.24,513.82,615.18,514.31Zm0.37-2.9a11.25,11.25,0,0,0-1.24.16c0.1-.78.18-1.38,0.3-2.34l1.1,0.89Zm0.19-1.56-0.86-.7a7.57,7.57,0,0,1,1-.16Zm0.13-1.17c-0.34,0-.55.08-0.74,0.12l0.8-.64Zm0.09-.79-1.26,1h-0.05c0.12-1,.19-1.59.28-2.41l0.14,0a5.77,5.77,0,0,1,1.06-.22C616.07,506.84,616,507.38,616,507.89Zm0.3-3a8,8,0,0,0-1.18.21c0.09-.81.15-1.43,0.24-2.42l1.07,0.8C616.36,503.93,616.31,504.4,616.26,504.91Zm0.16-1.71-0.81-.61a6.15,6.15,0,0,1,.88-0.15Zm0.09-1.07a6.38,6.38,0,0,0-.83.13l0.88-.81Zm0.08-.95-1.23,1.12c0.09-1,.15-1.62.22-2.45l0.13,0a5.3,5.3,0,0,1,1-.16C616.67,500.21,616.63,500.72,616.6,501.19Zm0.21-2.85a7.84,7.84,0,0,0-1.11.15c0.07-.83.12-1.47,0.19-2.48l1,0.66C616.89,497.18,616.85,497.73,616.81,498.33Zm0.13-1.91-0.76-.49a7.55,7.55,0,0,1,.8-0.08Zm0.05-.89c-0.37,0-.58,0-0.75.07l0.79-.75Zm0.05-.94-1.13,1.07c0.07-1,.12-1.67.17-2.52h0.08a6.86,6.86,0,0,1,1-.08C617.09,493.61,617.07,494.11,617,494.59Zm0.13-2.86a9.87,9.87,0,0,0-1,.07c0.05-.85.09-1.48,0.14-2.51h0l0.9,0.75C617.23,490.56,617.21,491.11,617.18,491.73Zm0.08-2-0.61-.51,0.63,0C617.27,489.42,617.27,489.59,617.26,489.77Zm0-.85-0.66,0,0.67-.52C617.3,488.59,617.29,488.76,617.29,488.93Zm0-.72-1,.77c0.06-1.14.09-1.79,0.13-2.79h0.06a7.19,7.19,0,0,1,.85,0C617.34,486.91,617.33,487.57,617.31,488.2Zm2.35-2.07a7.19,7.19,0,0,1,.85,0h0.06c0,1,.07,1.65.13,2.79l-1-.77C619.69,487.57,619.68,486.91,619.66,486.13Zm0.05,2.29,0.67,0.52-0.66,0C619.73,488.76,619.72,488.59,619.72,488.43Zm0,0.82,0.63,0-0.61.51C619.75,489.59,619.75,489.42,619.74,489.24Zm0.1,2.49c0-.62-0.05-1.17-0.07-1.69l0.9-.75h0c0.05,1,.09,1.66.14,2.51A9.86,9.86,0,0,0,619.84,491.73ZM619.9,493a6.86,6.86,0,0,1,1,.08h0.08c0.05,0.85.1,1.49,0.17,2.52L620,494.59C620,494.11,619.93,493.61,619.9,493Zm0.09,1.81,0.79,0.75c-0.17,0-.37,0-0.75-0.07Zm0.06,1a7.55,7.55,0,0,1,.79.08l-0.76.49Zm0.05,0.81,1-.66c0.07,1,.12,1.65.19,2.48a7.84,7.84,0,0,0-1.11-.15C620.17,497.73,620.13,497.18,620.1,496.67Zm0.21,3a5.3,5.3,0,0,1,1,.16l0.13,0c0.07,0.83.13,1.46,0.22,2.45l-1.23-1.12C620.39,500.72,620.35,500.21,620.31,499.66Zm0.14,1.8,0.88,0.81a6.38,6.38,0,0,0-.83-0.13Zm0.15,1.74-0.07-.75a6.15,6.15,0,0,1,.88.15Zm0,0.29,1.07-.8c0.09,1,.16,1.61.24,2.42a8,8,0,0,0-1.18-.21C620.71,504.4,620.66,503.93,620.62,503.49Zm0.27,2.75a5.78,5.78,0,0,1,1.06.22l0.14,0c0.09,0.81.16,1.43,0.28,2.41h-0.05l-1.26-1C621,507.38,620.95,506.84,620.89,506.24Zm0.2,1.91,0.8,0.64c-0.19,0-.41-0.08-0.74-0.12Zm0.09,0.84a7.57,7.57,0,0,1,1,.16l-0.86.7Zm0.13,1.13,1.1-.89c0.12,1,.19,1.57.3,2.34a11.26,11.26,0,0,0-1.24-.16Zm0.33,2.61a9.59,9.59,0,0,1,1.16.17l0.1,0c0.11,0.76.19,1.34,0.33,2.24l-1.38-.84C621.78,513.82,621.71,513.3,621.64,512.74Zm0.24,1.87,0.93,0.58-0.86,0Zm0.12,0.83,0.95,0-0.83.77Zm0.35,2.38q-0.11-.69-0.19-1.28l1.11-1h0c0.14,0.93.24,1.49,0.37,2.25Zm0.2,1.3,1.32-.07c0.14,0.76.25,1.36,0.44,2.3l-1.55-.91Zm0.26,1.6,1.19,0.71-1.06.1Zm0.19,1.12,1.15-.11-1,1Zm0.2,1.15,1.2-1.17c0.18,0.91.3,1.52,0.47,2.31-0.35,0-.75.09-1.44,0.14Zm0.47,2.58c0.72-.06,1.12-0.1,1.48-0.15,0.18,0.81.31,1.43,0.54,2.4l-1.79-1.05Zm0.28,1.5,1.45,0.86-1.27.09Zm0.25,1.25,1.16-.07-1,.94Zm0.23,1.14,1.32-1.24h0c0.24,1,.38,1.65.59,2.5l-1.67,0Zm0.78,3.66L625,532.06l1.71,0c0.21,0.84.36,1.47,0.62,2.47Zm0.08,0.35,1.59,1h-1.37Zm0.3,1.34,1.51,0-1.21,1.27Zm0.39,1.68,1.46-1.52c0.24,0.93.4,1.54,0.61,2.32l-1.89-.06Zm0.49,2,1.78,0.06h0.15c0.22,0.8.39,1.41,0.65,2.35l-2.35-1.42Zm0.59,2.38-0.26-1.05L628.6,541Zm0.08,0.3,1.89,0.07-1.48,1.52Zm0.5,1.92,1.59-1.63c0.23,0.83.4,1.39,0.6,2.08h-0.37l-1.7,0Zm0.47,1.74c0.91,0,1.54,0,2.1,0,0.21,0.7.38,1.24,0.62,2.07l-2.55-1.42Zm0.28,1,2.1,1.19c-0.58,0-1,.07-1.75.08Zm0.43,1.57c0.7,0,1.14,0,1.68-.09l-1.29,1.45Zm0.5,1.77,1.65-1.84c0.26,0.89.42,1.45,0.65,2.19-0.58.06-1.24,0.12-2.15,0.17Zm0.5,1.79c0.92-.06,1.58-0.12,2.18-0.18l0.57,1.86-2.67-1.38Zm0.63,2.24L630,551.74l2.56,1.34C631.77,553.16,631.28,553.22,630.43,553.28Zm0.08,0.28c0.75-.06,1.21-0.1,1.86-0.17L631,555.08Zm0.56,1.94,1.71-2c0.26,0.82.43,1.37,0.66,2.07-0.65.07-1.35,0.14-2.29,0.21Zm0.45,1.51c0.94-.08,1.65-0.15,2.33-0.22l0.67,2-2.85-1.33Zm0.26,0.88,2.36,1.11-2,.17Zm0.46,1.55,2.32-.2-1.71,2.19Zm2.53,0.15,0.61,1.82-2.17.15Zm-1.48,3.25,2.47-.17h0.05l0.72,2.08-3.13-1.53ZM634,565l-0.42-1.33,2.49,1.23Zm0.78,2.39L634,565.24l2.51-.12,0,0-1.74,2.21h-0.11Zm0.61,0,1.45-1.83,0.63,1.77Zm3-.08-0.63,0-0.68-1.9,3.57,1.73,0,0.09Z" transform="translate(-565.33 -466.86)"/><rect class="cls-4" x="49.74" y="11.12" width="6.89" height="1.04"/><rect class="cls-4" x="50.87" y="8.99" width="4.62" height="1.04"/><path class="cls-4" d="M614.06,527.23h-1l-0.15.78-1.27-.09,1.17-.69h-0.46l-1,.58,0.13-.58H611.3l-0.13.55-0.58-.55h-0.36l0.67,0.63-1.26-.09,0.13-.54h-1l-0.26,1h1l0-.18,1.15,0.08-0.18.1H611l0,0v0h0.17v-0.06h0l0.06,0.06h0.35l0,0,0.39,0h1.8Z" transform="translate(-565.33 -466.86)"/><path class="cls-4" d="M625.36,528.24l0,0h0.35l0.06-.06h0v0.06H626v0l0,0h0.48l-0.18-.1,1.15-.08,0,0.18h1l-0.26-1h-1l0.13,0.54-1.26.09,0.67-.63h-0.36l-0.58.55-0.13-.55h-0.16l0.13,0.58-1-.58h-0.46l1.16,0.69-1.27.09-0.15-.78h-1l0.2,1H625Z" transform="translate(-565.33 -466.86)"/><path class="cls-4" d="M619.66,486.13a7.19,7.19,0,0,1,.85,0h0.06c0,0.35,0,.66,0,1h0.08c0-.3,0-0.61,0-1,0.16,0,.42,0,1.08,0l0.05,0.92h1.14c0-.33,0-0.67,0-1h-4.27c0,0.36,0,.7,0,1h1C619.68,486.82,619.67,486.49,619.66,486.13Z" transform="translate(-565.33 -466.86)"/><path class="cls-4" d="M614.14,486.11c0,0.37,0,.71,0,1h1.14l0.05-.92c0.67,0,.92,0,1.08,0,0,0.35,0,.66,0,1h0.08c0-.3,0-0.61,0-1h0.06a7.19,7.19,0,0,1,.85,0c0,0.36,0,.69,0,1h1c0-.33,0-0.67,0-1h-4.22Z" transform="translate(-565.33 -466.86)"/><path class="cls-4" d="M628.73,533l-0.64.67h0.48l0.27-.28,0.08,0.28h1l-0.29-1h-1Z" transform="translate(-565.33 -466.86)"/><path class="cls-4" d="M610,532.67l-0.26,1h0.19l0.26-1H610Z" transform="translate(-565.33 -466.86)"/><path class="cls-4" d="M608,533.7l0.08-.28,0.27,0.28h0.48l-0.64-.67,0.1-.36h-1l-0.29,1h1Z" transform="translate(-565.33 -466.86)"/><path class="cls-4" d="M625.24,533.44l0.4,0.27h0.46l-0.94-.61-0.09-.42h-1l0.23,1h1Z" transform="translate(-565.33 -466.86)"/><path class="cls-4" d="M627.26,533.7l-0.26-1h-0.18l0.26,1h0.19Z" transform="translate(-565.33 -466.86)"/><path class="cls-4" d="M612.67,533.7l0.23-1h-1l-0.09.42-0.94.61h0.46l0.4-.27-0.06.27h1Z" transform="translate(-565.33 -466.86)"/><line class="cls-4" x1="65.17" y1="64.8" x2="41.33" y2="64.8"/><polyline class="cls-4" points="41.17 64.85 41.17 65.86 65.17 65.86 65.17 64.85"/><rect class="cls-4" x="41.17" y="64.89" width="24" height="0.33"/><rect class="cls-4" x="50.87" y="9.53" width="4.62" height="0.5"/><rect class="cls-4" x="49.74" y="11.65" width="6.89" height="0.5"/><rect class="cls-4" x="49.5" y="12.8" width="1" height="1"/><rect class="cls-4" x="56" y="12.64" width="1" height="1"/><rect class="cls-4" x="49.5" y="17.47" width="1" height="1"/><rect class="cls-4" x="55.83" y="17.64" width="1" height="1"/><g class="cls-4"><path d="M597.11,574.53c1.09,0,2.13,0,3.47,0h0.35l0.12-.42,0.34-1h-8.56l-0.58,1.4H593C594.69,574.52,595.92,574.55,597.11,574.53Z" transform="translate(-565.33 -466.86)"/><path d="M644.17,573.13h-8.54l0.34,1,0.11,0.48h8.68Z" transform="translate(-565.33 -466.86)"/></g></g></g></svg>