<svg xmlns="http://www.w3.org/2000/svg" viewBox="0 0 107.75 53.37"><defs><style>.cls-1{isolation:isolate;}.cls-2{fill:#fff;opacity:0.4;}.cls-3{opacity:0.05;mix-blend-mode:multiply;}.cls-4{fill:#ffcd1c;}.cls-5{opacity:0.1;}.cls-5,.cls-7,.cls-8,.cls-9{mix-blend-mode:color-burn;}.cls-6{fill:#ffd037;}.cls-7{opacity:0.2;}.cls-8{fill:none;stroke:#000;stroke-linecap:round;stroke-linejoin:round;stroke-width:0.5px;}.cls-8,.cls-9{opacity:0.3;}</style></defs><title>landmarks_pyramids</title><g class="cls-1"><g id="pyramids"><path class="cls-2" d="M236.2,263.08c-1.32-1.4-4.47-2.39-8.14-2.39-4.87,0-8.81,1.73-8.81,3.86s3.94,3.86,8.81,3.86A18.51,18.51,0,0,0,232,268a15.21,15.21,0,0,0,3.61.41c3.75,0,6.8-1.2,6.8-2.67S239.68,263.2,236.2,263.08Z" transform="translate(-134.66 -247.38)"/><path class="cls-2" d="M204.55,254c-2.23-2.36-7.52-4-13.71-4-8.19,0-14.84,2.91-14.84,6.5s6.64,6.5,14.84,6.5a31.15,31.15,0,0,0,6.64-.69,25.67,25.67,0,0,0,6.08.69c6.32,0,11.45-2,11.45-4.5S210.4,254.22,204.55,254Z" transform="translate(-134.66 -247.38)"/><ellipse class="cls-3" cx="53.67" cy="48.87" rx="53.67" ry="4.5"/><polygon class="cls-4" points="5.76 48.62 41.09 0 76.41 48.62 5.76 48.62"/><polygon class="cls-5" points="20.79 48.02 76.34 48.02 41.46 0 20.79 48.02"/><polygon class="cls-6" points="58.23 48.62 79.02 20 99.81 48.62 58.23 48.62"/><g class="cls-3"><polygon points="63.41 31.27 46.06 48.62 57.9 48.62 66.95 36.16 63.41 31.27"/></g><polygon class="cls-7" points="68.01 48.45 99.81 48.45 79.15 20 68.01 48.45"/><line class="cls-8" x1="37.84" y1="11.62" x2="48.84" y2="11.62"/><g class="cls-9"><path d="M190,271.36a5.07,5.07,0,0,0-1.25-.11h-3.83a1,1,0,0,1-1-1v-0.08a5.07,5.07,0,0,0-.11-1.25h-0.28a5.07,5.07,0,0,0-.11,1.25v0.08a1,1,0,0,1-1,1h-5.83a1,1,0,0,1-1-1v-0.08a5.07,5.07,0,0,0-.11-1.25H175.2a5.07,5.07,0,0,0-.11,1.25v0.08a1,1,0,0,1-1,1h-3.83a5.07,5.07,0,0,0-1.25.11v0.28a5.07,5.07,0,0,0,1.25.11h18.5a5.07,5.07,0,0,0,1.25-.11v-0.28Z" transform="translate(-134.66 -247.38)"/></g><g class="cls-9"><path d="M186.5,264.86a5.07,5.07,0,0,0-1.25-.11h-5.17a1,1,0,0,1-1-1v-0.08a5.07,5.07,0,0,0-.11-1.25H178.7a5.07,5.07,0,0,0-.11,1.25v0.08a1,1,0,0,1-1,1H172a5.07,5.07,0,0,0-1.25.11v0.28a5.07,5.07,0,0,0,1.25.11h13.25a5.07,5.07,0,0,0,1.25-.11v-0.28Z" transform="translate(-134.66 -247.38)"/></g><g class="cls-9"><path d="M221.67,280.4a3.62,3.62,0,0,0-.89-0.08h-3.69a0.72,0.72,0,0,1-.71-0.71v-0.06a3.62,3.62,0,0,0-.08-0.89h-0.2a3.63,3.63,0,0,0-.08.89v0.06a0.72,0.72,0,0,1-.71.71h-4a3.62,3.62,0,0,0-.89.08v0.2a3.62,3.62,0,0,0,.89.08h9.46a3.62,3.62,0,0,0,.89-0.08v-0.2Z" transform="translate(-134.66 -247.38)"/></g><line class="cls-8" x1="77.84" y1="27.37" x2="82.84" y2="27.37"/></g></g></svg>