<svg xmlns="http://www.w3.org/2000/svg" viewBox="0 0 107.33 38.85"><defs><style>.cls-1{isolation:isolate;}.cls-2{opacity:0.05;}.cls-10,.cls-11,.cls-12,.cls-2,.cls-3,.cls-7,.cls-9{mix-blend-mode:multiply;}.cls-10,.cls-11,.cls-3,.cls-8{fill:#bec4b4;}.cls-3,.cls-7{opacity:0.3;}.cls-4{fill:#e0ddd1;}.cls-5{fill:#666a68;opacity:0.6;}.cls-6{fill:#b8b797;}.cls-10,.cls-9{opacity:0.2;}.cls-11{opacity:0.1;}.cls-12{opacity:0.4;}</style></defs><title>landmarks_sydney</title><g class="cls-1"><g id="sydney_opera_house" data-name="sydney opera house"><path class="cls-2" d="M526.79,576.21c-11.17,1.68-21.81,2.62-48.72,2.62s-37.55-.75-48.72-2.62c-7.22-1.21,21.81-4.52,48.72-4.52S534.18,575.11,526.79,576.21Z" transform="translate(-422.33 -541.65)"/><ellipse class="cls-2" cx="53.67" cy="34.35" rx="53.67" ry="4.5"/><polygon class="cls-3" points="12.95 31 7.23 31 7.23 32.96 61.99 32.96 101.9 32.96 100.07 31 12.95 31"/><path class="cls-4" d="M453,566.71h3.84l4.63,1.3h33.32l6.52,1.81H512.1l1-2L509,565.27l4.13-5.72c-4.56-1.23-14.27,2.32-14.27,2.32a26.11,26.11,0,0,0-3.69-1.3l2.54-6.52a22.82,22.82,0,0,0-16.59,2.46c-1.3-3.55-7.17-7.24-7.17-7.24-4.35-5.94-15.07-7.61-15.07-7.61l2.32,9.63c-2.1-1.88-10.43-2.61-10.43-2.61l0.65,5.58c-4.13-1.59-11.44-.65-11.44-0.65l4.27,10.79,0,0.07h2.44Z" transform="translate(-422.33 -541.65)"/><path class="cls-5" d="M513,568.09l0.12-.22L509,565.27l4.13-5.72-0.17,0c-4.56,2.41-11.53,8.59-11.53,8.59H513Z" transform="translate(-422.33 -541.65)"/><path class="cls-5" d="M495.15,562.22l1.15-1.33-1.12-.34,2.44-6.28a41.58,41.58,0,0,0-3.78,6.32Z" transform="translate(-422.33 -541.65)"/><polygon class="cls-5" points="73.36 24.37 72.68 26.42 77.74 27.82 76.73 24.37 73.36 24.37"/><polygon class="cls-5" points="67.48 26.36 71.74 26.36 69.99 21.33 67.48 26.36"/><path class="cls-5" d="M478,566.24V568h9.63l-1.8-2.75S479.07,565.7,478,566.24Z" transform="translate(-422.33 -541.65)"/><path class="cls-5" d="M470.92,564.62s-3.11,2.33-4.25,3.4h10.12v-1.77A35.91,35.91,0,0,0,470.92,564.62Z" transform="translate(-422.33 -541.65)"/><path class="cls-5" d="M455.82,564.4l-1.21,2.32h2.26l4.63,1.3h1l-0.93-3S457.13,564.51,455.82,564.4Z" transform="translate(-422.33 -541.65)"/><polygon class="cls-5" points="23.71 21.01 23.02 22.82 24.4 22.82 28.89 24.42 28.16 21.98 23.71 21.01"/><polygon class="cls-6" points="98.71 29.55 96.54 29.55 92.92 28.18 89.77 28.18 79.01 28.18 72.49 26.36 39.17 26.36 34.54 25.06 30.7 25.06 24.4 22.82 21.95 22.82 21.64 22.82 19.47 23.9 15.92 23.9 15.92 26 15.27 25.79 14.4 25.79 14.4 27.81 12.95 27.81 12.95 31 7.23 31 7.23 32.96 61.99 32.96 101.9 32.96 98.71 29.55"/><polygon class="cls-3" points="12.95 31 12.95 27.81 14.4 27.81 14.4 25.79 15.49 25.79 20.94 29.1 21.59 29.1 24.36 30.57 24.36 31 12.95 31"/><g class="cls-7"><rect class="cls-8" x="7.23" y="31" width="5.72" height="1"/><polygon class="cls-8" points="15.92 27 15.92 26 15.27 25.79 14.4 25.79 14.4 26.79 15.27 26.79 15.92 27"/><polygon class="cls-8" points="21.64 23.82 21.95 23.82 24.4 23.82 30.7 26.06 34.54 26.06 39.17 27.36 72.49 27.36 79.01 29.18 89.77 29.18 92.92 29.18 96.54 30.55 98.71 30.55 100.96 32.96 101.9 32.96 98.71 29.55 96.54 29.55 92.92 28.18 89.77 28.18 79.01 28.18 72.49 26.36 39.17 26.36 34.54 25.06 30.7 25.06 24.4 22.82 21.95 22.82 21.64 22.82 19.47 23.9 15.92 23.9 15.92 24.9 19.47 24.9 21.64 23.82"/><rect class="cls-8" x="12.95" y="27.81" width="1.45" height="1"/></g><polygon class="cls-9" points="69.99 21.33 67.48 26.36 68.48 26.36 70.4 22.51 69.99 21.33"/><path class="cls-9" d="M513.15,559.54l-0.17,0c-4.56,2.41-11.53,8.59-11.53,8.59h1a93.11,93.11,0,0,1,10.15-7.79Z" transform="translate(-422.33 -541.65)"/><path class="cls-9" d="M494.85,560.6a14.38,14.38,0,0,1,1.28-2.46l1.5-3.85a41.58,41.58,0,0,0-3.78,6.32l1.3,1.63,0.52-.6Z" transform="translate(-422.33 -541.65)"/><polygon class="cls-9" points="73.68 26.42 74.36 24.37 73.36 24.37 72.68 26.42 77.74 27.82 77.65 27.52 73.68 26.42"/><path class="cls-9" d="M485.85,565.34l0-.07s-6.74.43-7.82,1V568h1v-1.77C479.82,565.83,484,565.48,485.85,565.34Z" transform="translate(-422.33 -541.65)"/><path class="cls-9" d="M470.92,564.62s-3.11,2.33-4.25,3.4h1c1-.93,3.44-2.79,4.09-3.28A6.85,6.85,0,0,0,470.92,564.62Z" transform="translate(-422.33 -541.65)"/><path class="cls-10" d="M481.26,556.4a7.32,7.32,0,0,0-.81-1.48,25.4,25.4,0,0,0-4.95,8.24C476.35,560.72,479.06,558.16,481.26,556.4Z" transform="translate(-422.33 -541.65)"/><path class="cls-10" d="M463.63,558a28.78,28.78,0,0,0-2.58-6.92l0,0.21a7.13,7.13,0,0,0-2.51-1.2C462.54,554.26,464.49,562.34,463.63,558Z" transform="translate(-422.33 -541.65)"/><path class="cls-10" d="M449.62,553.77a34.41,34.41,0,0,1,4.75,5.48,27.47,27.47,0,0,0-3.1-5.37l0,0.38A11.07,11.07,0,0,0,449.62,553.77Z" transform="translate(-422.33 -541.65)"/><path class="cls-11" d="M498.76,561.86a5.37,5.37,0,0,0-.93-0.42c-1.84,2.48-3.19,5.47-2.07,3.68a13.89,13.89,0,0,1,3.54-3.45Z" transform="translate(-422.33 -541.65)"/><g class="cls-12"><path class="cls-7" d="M455.82,564.4l-1.21,2.32h1l1.16-2.22Z" transform="translate(-422.33 -541.65)"/></g><g class="cls-12"><polygon class="cls-7" points="24.65 21.21 23.71 21.01 23.02 22.82 24.21 22.82 24.65 21.21"/></g></g></g></svg>