<svg xmlns="http://www.w3.org/2000/svg" xmlns:xlink="http://www.w3.org/1999/xlink" viewBox="0 0 107.33 76.23"><defs><style>.cls-1,.cls-12{fill:none;}.cls-2{isolation:isolate;}.cls-3{opacity:0.05;}.cls-3,.cls-6,.cls-9{mix-blend-mode:multiply;}.cls-4{fill:#f2444d;}.cls-5{fill:#dddad0;}.cls-10,.cls-6{fill:#bec4b4;}.cls-6,.cls-9{opacity:0.6;}.cls-7{fill:#191717;opacity:0.8;}.cls-8{clip-path:url(#clip-path);}.cls-11{fill:#fff;}.cls-12{stroke:#fff;stroke-miterlimit:10;}</style><clipPath id="clip-path" transform="translate(-277.33 -364.6)"><path class="cls-1" d="M359,429.73a2,2,0,0,0-1.93-1.85h-3.65V406.74l-1.15-.44c3.77-.22,6.15-0.5,6.41-0.82h0V397.7l-2.12-.82-11-13.15-12.43-14.87-12.43,14.87-11,13.15-2.12.82v7.78h0c0.26,0.31,2.64.6,6.41,0.82l-1.16.44v21.14h-3.65a2.05,2.05,0,0,0-1.93,1.85l-2.34,9.6h56.38Z"/></clipPath></defs><title>landmarks_windmill</title><g class="cls-2"><g id="windmill"><ellipse class="cls-3" cx="53.67" cy="71.73" rx="53.67" ry="4.5"/><rect class="cls-4" x="47.27" y="36.55" width="17.62" height="26.43"/><polygon class="cls-5" points="56.08 4.31 68.51 19.18 80.94 34.05 56.08 34.05 31.22 34.05 43.65 19.18 56.08 4.31"/><polygon class="cls-4" points="76.25 62.98 64.8 62.98 64.8 36.55 76.25 40.96 76.25 62.98"/><polygon class="cls-4" points="35.9 62.98 47.36 62.98 47.36 36.55 35.9 40.96 35.9 62.98"/><polygon class="cls-6" points="76.34 62.98 64.89 62.98 64.89 36.55 76.34 40.96 76.34 62.98"/><polygon class="cls-6" points="35.82 62.98 47.27 62.98 47.27 36.55 35.82 40.96 35.82 62.98"/><polygon class="cls-4" points="81.63 40.93 67.19 40.93 67.19 27.6 81.63 33.15 81.63 40.93"/><rect class="cls-4" x="44.97" y="27.6" width="22.22" height="13.33"/><path class="cls-4" d="M305.22,438.16l2.34-9.6a2.05,2.05,0,0,1,1.93-1.85h47.83a2.05,2.05,0,0,1,1.93,1.85l2.34,9.6H305.22Z" transform="translate(-277.33 -364.6)"/><polygon class="cls-4" points="30.53 40.93 44.97 40.93 44.97 27.6 30.53 33.15 30.53 40.93"/><polygon class="cls-6" points="81.63 40.58 67.19 40.58 67.19 27.25 81.63 32.8 81.63 40.58"/><polygon class="cls-6" points="30.53 40.58 44.97 40.58 44.97 27.25 30.53 32.8 30.53 40.58"/><path class="cls-6" d="M359,405.12c0,0.73-11.44.44-25.55,0.44s-25.55.29-25.55-.44,11.44-1.32,25.55-1.32S359,404.39,359,405.12Z" transform="translate(-277.33 -364.6)"/><path class="cls-7" d="M330.28,438v-6.56a3.11,3.11,0,0,1,3.08-3.13h0a3.11,3.11,0,0,1,3.08,3.13V438h-6.17Z" transform="translate(-277.33 -364.6)"/><g class="cls-8"><g class="cls-9"><rect class="cls-10" x="327.32" y="385.17" width="39.64" height="0.88" transform="translate(-448.33 -6.19) rotate(-45)"/><path class="cls-10" d="M344.65,398.69L334.06,388.1l22.43-22.43,10.59,10.59Zm-9.34-10.59,9.34,9.35,21.18-21.18-9.34-9.34Z" transform="translate(-277.33 -364.6)"/><rect class="cls-10" x="357.92" y="367.79" width="0.88" height="13.22" transform="translate(-437.11 -1.55) rotate(-45)"/><rect class="cls-10" x="354.8" y="370.9" width="0.88" height="13.22" transform="translate(-440.23 -2.82) rotate(-45)"/><rect class="cls-10" x="351.69" y="374.02" width="0.88" height="13.22" transform="translate(-443.34 -4.11) rotate(-45)"/><rect class="cls-10" x="348.57" y="377.13" width="0.88" height="13.21" transform="translate(-446.46 -5.42) rotate(-45)"/><rect class="cls-10" x="345.46" y="380.25" width="0.88" height="13.21" transform="translate(-449.57 -6.74) rotate(-45)"/><rect class="cls-10" x="342.34" y="383.36" width="0.88" height="13.22" transform="translate(-452.69 -7.99) rotate(-45)"/><rect class="cls-10" x="299.29" y="413.2" width="39.64" height="0.88" transform="translate(-476.36 -17.76) rotate(-45)"/><path class="cls-10" d="M309.77,433.57L299.18,423l22.43-22.42,10.59,10.59ZM300.42,423l9.35,9.34,21.18-21.18-9.34-9.34Z" transform="translate(-277.33 -364.6)"/><rect class="cls-10" x="307.46" y="418.24" width="0.88" height="13.22" transform="translate(-487.57 -22.44) rotate(-45)"/><rect class="cls-10" x="310.57" y="415.13" width="0.88" height="13.22" transform="translate(-484.45 -21.15) rotate(-45)"/><rect class="cls-10" x="313.69" y="412.01" width="0.88" height="13.21" transform="translate(-481.33 -19.94) rotate(-44.99)"/><rect class="cls-10" x="316.8" y="408.9" width="0.88" height="13.21" transform="translate(-478.22 -18.6) rotate(-45)"/><rect class="cls-10" x="319.92" y="405.78" width="0.88" height="13.21" transform="translate(-475.11 -17.26) rotate(-45)"/><rect class="cls-10" x="323.03" y="402.67" width="0.88" height="13.21" transform="translate(-472.02 -15.82) rotate(-45.02)"/><rect class="cls-10" x="347.95" y="393.2" width="0.88" height="39.64" transform="translate(-467.34 2.77) rotate(-45.01)"/><path class="cls-10" d="M357.73,432.95l-22.43-22.43,10.59-10.58,22.43,22.42Zm-21.18-22.43,21.18,21.18,9.34-9.34L345.9,401.18Z" transform="translate(-277.33 -364.6)"/><rect class="cls-10" x="352.99" y="423.79" width="13.22" height="0.88" transform="translate(-471.98 13.93) rotate(-45)"/><rect class="cls-10" x="349.88" y="420.67" width="13.22" height="0.88" transform="translate(-470.67 10.6) rotate(-44.98)"/><rect class="cls-10" x="346.77" y="417.56" width="13.22" height="0.88" transform="translate(-469.41 7.74) rotate(-45)"/><rect class="cls-10" x="343.65" y="414.44" width="13.21" height="0.88" transform="translate(-468.11 4.58) rotate(-45)"/><rect class="cls-10" x="340.54" y="411.33" width="13.21" height="0.88" transform="translate(-466.8 1.25) rotate(-44.98)"/><rect class="cls-10" x="337.42" y="408.22" width="13.21" height="0.88" transform="translate(-465.53 -1.69) rotate(-45)"/><rect class="cls-10" x="319.92" y="365.16" width="0.88" height="39.64" transform="translate(-455.73 -25.32) rotate(-45)"/><path class="cls-10" d="M322.85,398.07l-22.43-22.43L311,365.05l22.43,22.43Zm-21.18-22.43,21.18,21.18,9.34-9.34L311,366.3Z" transform="translate(-277.33 -364.6)"/><rect class="cls-10" x="302.54" y="373.33" width="13.22" height="0.88" transform="translate(-451.1 -36.34) rotate(-45.02)"/><rect class="cls-10" x="305.65" y="376.45" width="13.21" height="0.88" transform="translate(-452.37 -33.45) rotate(-45)"/><rect class="cls-10" x="308.77" y="379.56" width="13.21" height="0.88" transform="translate(-453.65 -30.46) rotate(-44.98)"/><rect class="cls-10" x="311.88" y="382.68" width="13.21" height="0.88" transform="translate(-454.97 -27.03) rotate(-45.02)"/><rect class="cls-10" x="315" y="385.79" width="13.22" height="0.88" transform="translate(-456.25 -24.03) rotate(-45)"/><rect class="cls-10" x="318.11" y="388.91" width="13.22" height="0.88" transform="matrix(0.71, -0.71, 0.71, 0.71, -457.51, -21.2)"/></g></g><circle class="cls-11" cx="55.59" cy="34.09" r="2.64"/><line class="cls-12" x1="82.43" y1="6.62" x2="54.4" y2="34.66"/><rect class="cls-12" x="333.76" y="374.77" width="30.83" height="14.1" transform="translate(-445.05 -5.88) rotate(-45)"/><line class="cls-12" x1="74.95" y1="4.76" x2="84.3" y2="14.1"/><line class="cls-12" x1="71.84" y1="7.87" x2="81.18" y2="17.22"/><line class="cls-12" x1="68.72" y1="10.99" x2="78.07" y2="20.33"/><line class="cls-12" x1="65.61" y1="14.1" x2="74.95" y2="23.44"/><line class="cls-12" x1="62.5" y1="17.22" x2="71.84" y2="26.56"/><line class="cls-12" x1="59.38" y1="20.33" x2="68.72" y2="29.67"/><line class="cls-12" x1="26.36" y1="62.68" x2="54.4" y2="34.66"/><rect class="cls-12" x="298.87" y="409.65" width="30.83" height="14.09" transform="translate(-479.95 -20.17) rotate(-45.02)"/><line class="cls-12" x1="33.84" y1="64.55" x2="24.49" y2="55.21"/><line class="cls-12" x1="36.95" y1="61.44" x2="27.61" y2="52.09"/><line class="cls-12" x1="40.07" y1="58.32" x2="30.72" y2="48.98"/><line class="cls-12" x1="43.18" y1="55.21" x2="33.84" y2="45.87"/><line class="cls-12" x1="46.3" y1="52.09" x2="36.95" y2="42.75"/><line class="cls-12" x1="49.41" y1="48.98" x2="40.07" y2="39.64"/><line class="cls-12" x1="83.68" y1="62.06" x2="55.64" y2="34.03"/><rect class="cls-12" x="343.37" y="400.66" width="14.09" height="30.83" transform="translate(-468.9 4.89) rotate(-44.98)"/><line class="cls-12" x1="85.54" y1="54.59" x2="76.2" y2="63.93"/><line class="cls-12" x1="82.43" y1="51.47" x2="73.08" y2="60.82"/><line class="cls-12" x1="79.31" y1="48.36" x2="69.97" y2="57.7"/><line class="cls-12" x1="76.2" y1="45.24" x2="66.86" y2="54.59"/><line class="cls-12" x1="73.08" y1="42.13" x2="63.74" y2="51.47"/><line class="cls-12" x1="69.97" y1="39.02" x2="60.63" y2="48.36"/><line class="cls-12" x1="27.61" y1="6" x2="55.64" y2="34.03"/><rect class="cls-12" x="308.49" y="365.78" width="14.1" height="30.83" transform="translate(-454.46 -29.84) rotate(-45)"/><line class="cls-12" x1="25.74" y1="13.48" x2="35.09" y2="4.13"/><line class="cls-12" x1="28.86" y1="16.59" x2="38.2" y2="7.25"/><line class="cls-12" x1="31.97" y1="19.71" x2="41.31" y2="10.36"/><line class="cls-12" x1="35.09" y1="22.82" x2="44.43" y2="13.48"/><line class="cls-12" x1="38.2" y1="25.94" x2="47.54" y2="16.59"/><line class="cls-12" x1="41.31" y1="29.05" x2="50.66" y2="19.71"/></g></g></svg>