<svg xmlns="http://www.w3.org/2000/svg" viewBox="0 0 107.33 42.72"><defs><style>.cls-1{isolation:isolate;}.cls-2{opacity:0.05;}.cls-2,.cls-4,.cls-6,.cls-7{mix-blend-mode:multiply;}.cls-3{fill:#66ce64;}.cls-4,.cls-6,.cls-8,.cls-9{fill:#bec4b4;}.cls-4{opacity:0.5;}.cls-5{fill:#cbc5b7;}.cls-10,.cls-6,.cls-9{opacity:0.2;}.cls-7{opacity:0.3;}.cls-10,.cls-9{mix-blend-mode:overlay;}</style></defs><title>landmarks_stonehenge</title><g class="cls-1"><g id="stone_henge" data-name="stone henge"><ellipse class="cls-2" cx="53.67" cy="38.22" rx="53.67" ry="4.5"/><path class="cls-3" d="M230.43,575.71c-9.88,1.68-19.3,2.62-43.1,2.62s-33.22-.75-43.1-2.62c-6.39-1.21,19.3-4.52,43.1-4.52S237,574.61,230.43,575.71Z" transform="translate(-133.33 -537.78)"/><path class="cls-4" d="M212.23,572.26c-2.72.21-4.57,0.61-4.57,1.08,0,0.68,4,1.23,8.83,1.23,4.07,0,7.49-.38,8.51-0.91C221.68,573.17,217.26,572.67,212.23,572.26Z" transform="translate(-133.33 -537.78)"/><path class="cls-5" d="M210.43,544.25l-1.28,3.52s-0.48,2.72-.8,3.68c0,0-.16,10.59,0,11.71,0,0,0,5.91-.16,7.35,0,0-1.12,3,1.44,3.52H220.5l2.08-.48,0.64-2.08,0.32-1.76-1.76-1.12-0.64-1-0.48-7.19,0.32-6.12-0.48-1.44,0.16-5.91s-1.6-1.6-2.56-1.44a8,8,0,0,0-3.2-.32Z" transform="translate(-133.33 -537.78)"/><path class="cls-6" d="M210.43,544.25l-1.28,3.52s-0.48,2.72-.8,3.68c0,0-.16,10.59,0,11.71,0,0,0,5.91-.16,7.35,0,0-1.12,3,1.44,3.52H220.5l2.08-.48,0.64-2.08,0.32-1.76-1.76-1.12-0.64-1-0.48-7.19,0.32-6.12-0.48-1.44,0.16-5.91s-1.6-1.6-2.56-1.44a8,8,0,0,0-3.2-.32Z" transform="translate(-133.33 -537.78)"/><path class="cls-6" d="M221.14,567.63l-0.48-7.19,0.32-6.12-0.48-1.44,0.16-5.91s-1.6-1.6-2.56-1.44a8,8,0,0,0-3.2-.32l-4.48-1-1.28,3.52s-0.48,2.72-.8,3.68v0.07c1.75,1.73,4.7,5,4.9,5.74,0.25,1-1.5,4.25-2.5,4.75-0.73.36-1.85,2.18-2.41,3.14,0,0.23,0,.48,0,0.73l3.91,1.38s2.25,1.5,1.5,2.75-1,1.75-.25,2.5a14.66,14.66,0,0,0,2.11,1.52h4.88l2.08-.48,0.64-2.08,0.32-1.76-1.76-1.12Z" transform="translate(-133.33 -537.78)"/><ellipse class="cls-4" cx="43.67" cy="35.89" rx="8.67" ry="1.41"/><ellipse class="cls-4" cx="64.42" cy="36.31" rx="9.58" ry="0.86"/><ellipse class="cls-4" cx="25.67" cy="36.22" rx="8.67" ry="1.41"/><path class="cls-5" d="M157,544.57s-4.64-.8-4.64,3.84l-0.32,5.43A108.57,108.57,0,0,0,151,564.75s-1,5.27-.64,5.75a3.35,3.35,0,0,1,.32,2.24,1.43,1.43,0,0,0,1.44,1.76h9.59l3.68-.16-0.8-3.68L164.24,566s0.32-2.08.32-2.56-0.16-8,.16-8.68,0-9.43-.8-10.55Z" transform="translate(-133.33 -537.78)"/><path class="cls-5" d="M170,543.93s-1.44,8.47-1.28,11l0.48,17.79s0,1.28,1.92,1.44L182,574.34a5.17,5.17,0,0,0,1-2.25,2.76,2.76,0,0,0,0-.63c-0.16-1.44-.32-5.27-0.32-5.27a14.73,14.73,0,0,0-1.76-2.24l-0.48-.32L181,553.2l-0.16-3.36,0.48-4.16-1.44-1.76H170Z" transform="translate(-133.33 -537.78)"/><path class="cls-5" d="M190.29,543.77a27.87,27.87,0,0,0-.48,4.79,45.77,45.77,0,0,0-.48,5.59c0.16,0.8-.16,7.56-0.16,8.36s-0.48,2.72-.48,3.36-0.16,5,0,6.07-0.48,2.4,1.44,2.4l6.71-.16,8,0.16-1.92-2.72-0.16-3s-1-5.11-1-5.75-0.8-8.2-.8-8.84,0.32-8.79-2.72-10.23h-8Z" transform="translate(-133.33 -537.78)"/><path class="cls-6" d="M161.68,574.42l3.68-.16-0.8-3.68-0.32-4.63s0.32-2.08.32-2.56-0.16-8,.16-8.68,0-9.43-.8-10.55l-6.87.32a4.82,4.82,0,0,0-3.35.73c4.23-.75,10.26-0.2,9.45,9.45a4,4,0,0,0-1.23,2.12S161,559.11,160,559.3c0,0,.35,3.28-1.06,3.67l3.52-.77a4.6,4.6,0,0,0-1.76,3.09s0.88,2.32,0,3.09l0.35,2.51v3.53h0.65Z" transform="translate(-133.33 -537.78)"/><path class="cls-6" d="M182,574.22a5.17,5.17,0,0,0,1-2.25,2.76,2.76,0,0,0,0-.63c-0.16-1.44-.32-5.27-0.32-5.27a14.73,14.73,0,0,0-1.76-2.24l-0.48-.32L181,553.08l-0.16-3.36,0.48-4.16-1.11-1.36h-10.3c-0.16,1-.56,3.48-0.86,5.91a12.19,12.19,0,0,0,1.44-1s14.51-4.29,8.59,12.65c0,0-5.92,10.41-.76,8.16,2.42-1.05,2.73,1.4,2.07,4.28Z" transform="translate(-133.33 -537.78)"/><path class="cls-6" d="M203,571.75l-0.16-3s-1-5.11-1-5.75-0.8-8.2-.8-8.84,0.32-8.79-2.72-10.23h-8a27.87,27.87,0,0,0-.48,4.79,45.77,45.77,0,0,0-.48,5.59,5.81,5.81,0,0,1,0,.79c2,0.06,4.2.45,4.86,1.76,1.33,2.67,1,2.86.57,5.34s-0.76,4.38.57,3.24,2.48,0.38,2.29,2.1-1.52.19-1.91,3.24a9.09,9.09,0,0,0,.16,3.45l0.79,0,8,0.16Z" transform="translate(-133.33 -537.78)"/><g class="cls-7"><path class="cls-8" d="M157.3,544.57a5.6,5.6,0,0,0-1.32,0l0,0.54a1.14,1.14,0,0,0,1,1.2l3.28-.28a12.15,12.15,0,0,1,2.24.19,6.64,6.64,0,0,0,2.07-.17,5.25,5.25,0,0,0-.47-1.78Z" transform="translate(-133.33 -537.78)"/><path class="cls-8" d="M180.15,543.93h-9.91s-0.13.77-.31,1.9h1.9l1.92-.93,1.12,0.37,4.48,0.18,2.21,0.51,0-.28Z" transform="translate(-133.33 -537.78)"/><path class="cls-8" d="M198.53,543.77h-8s-0.19,1.11-.34,2.3l0.5-.05,3.84-.18,3.68,0.18,2.16,0.26A4.13,4.13,0,0,0,198.53,543.77Z" transform="translate(-133.33 -537.78)"/><path class="cls-8" d="M215.31,546.94a2.58,2.58,0,0,0,1-1.3c0-.09,0-0.27,0-0.5a3.09,3.09,0,0,0-1.14.06l-4.48-1-0.84,2.32h2Z" transform="translate(-133.33 -537.78)"/></g><path class="cls-5" d="M216.34,540.81s0.48-2.08-2.08-2.08L196,538.09h-8.63l-4.32-.32-3.52.32-5.59.16H166.8l-5-.16-3.2.64s-3.2-.32-3.2,1.44l0.32,3.92a1,1,0,0,0,1,1l3.28-.24a14,14,0,0,1,2.24.16,13.47,13.47,0,0,0,3-.32h6.23l1.92-.8,1.12,0.32,4.48,0.16,3.2,0.64,4.79,0.16,3.36-.32,3.84-.16,3.68,0.16,3,0.32,5.27,0.16h5.27l3.52,0.32a2.3,2.3,0,0,0,1-1.12C216,544.09,216.34,540.81,216.34,540.81Z" transform="translate(-133.33 -537.78)"/><g class="cls-7"><path class="cls-8" d="M216,544.81l-1.68-.35s-4.81,0-5.31-.15a22.72,22.72,0,0,0-3.15-.62,27.11,27.11,0,0,1-6.63-.31,3,3,0,0,1-2.2-1.47,2.85,2.85,0,0,1-.29,1.47c-0.66,1.23,0,0-.66-0.15s-2.32.31-3.15,0.15-2,.46-2.49.15-2.49.31-2.49,0.31a13.81,13.81,0,0,1-3.15.31,15.23,15.23,0,0,1-3.48-.61c-1-.46-2.49,0-3.15-0.15s-2.16,0-3.32-.15-0.5-.62-0.83-1.54a4.65,4.65,0,0,1-.33-1.38s-0.33,1.84-.5,2.3a3.13,3.13,0,0,1-2,1.08,19.55,19.55,0,0,1-2.82-.15c-0.83-.15-3.15-0.46-3.15-0.46l-4.15.77H159.3a6.57,6.57,0,0,1-2.16-.31,3,3,0,0,0-1.7.06l0,0.49a1.31,1.31,0,0,0,.2.63l2.76,0.27,1.38-.1a14.2,14.2,0,0,1,2.25.16,13.63,13.63,0,0,0,3.06-.32h6.27l1.93-.8,1.13,0.32,4.5,0.16,3.22,0.64,4.82,0.16,3.38-.32,3.86-.16,3.7,0.16,3.06,0.32,5.31,0.16h5.31l3.54,0.32A3.21,3.21,0,0,0,216,544.81Z" transform="translate(-133.33 -537.78)"/><path class="cls-8" d="M197.08,541.91a5,5,0,0,0-.29-1.45A2.61,2.61,0,0,0,197.08,541.91Z" transform="translate(-133.33 -537.78)"/></g><path class="cls-9" d="M156.5,548.25c-0.6-.3-2.19-1.41-3.36-2.25a4.46,4.46,0,0,0-.48,2.15l-0.32,5.43a108.57,108.57,0,0,0-1.12,10.91v0a2.47,2.47,0,0,0,1.54-1.05c0.25-1,1.25-1.75,1.25-3s2.75-2.25,3-3.25,2.5-1.75,2.75-2.75-0.75-3.25-.75-3.25S157.5,548.75,156.5,548.25Z" transform="translate(-133.33 -537.78)"/><path class="cls-9" d="M175,559c1-1.5,1-2.5,1.5-4.25s-2.5-3-3.5-3.25a37.75,37.75,0,0,0-3.94-.44,17.92,17.92,0,0,0-.1,2.4l0.36,13.36a5.8,5.8,0,0,0,1.93-1.81c0.75-1.25,1-.75,1.5-2.5S174,560.5,175,559Z" transform="translate(-133.33 -537.78)"/><g class="cls-10"><path class="cls-8" d="M197.54,538.34h-8.63l-2.21-.16a3.38,3.38,0,0,0,1.29,1.57,9.67,9.67,0,0,0,2.25.25l3.25-.75,5,0.5s1.75,0.25,2.5.25a11.21,11.21,0,0,0,2.75-.25c1-.25,2.5,0,3.5-0.5a8.08,8.08,0,0,1,2.37-.48Z" transform="translate(-133.33 -537.78)"/><path class="cls-8" d="M168.3,538.5l-5-.16-3.2.64s-2.36-.23-3,0.82c2.19,0.94,3.26,1.75,4.63,1.94a13.45,13.45,0,0,0,4.75-.25c0.75-.25,2.75-2.5,2.75-2.5s0.19-.21.46-0.5H168.3Z" transform="translate(-133.33 -537.78)"/></g><path class="cls-3" d="M182.94,573.19h0v0a1.75,1.75,0,0,0-1.31,0h-1.33l-1,.17-2,.33-0.83.59,5.81,0.09A5.79,5.79,0,0,0,182.94,573.19Z" transform="translate(-133.33 -537.78)"/><polygon class="cls-3" points="69.67 33.98 69 34.23 69.33 35.06 68.67 36.23 68.23 36.5 71.5 36.57 69.67 33.98"/><path class="cls-4" d="M182.94,573.19h0v0a1.75,1.75,0,0,0-1.31,0h-1.33l-1,.17-2,.33-0.83.59,5.81,0.09A5.79,5.79,0,0,0,182.94,573.19Z" transform="translate(-133.33 -537.78)"/><polygon class="cls-4" points="69.67 33.98 69 34.23 69.33 35.06 68.67 36.23 68.23 36.5 71.5 36.57 69.67 33.98"/><path class="cls-5" d="M207.31,574.37l-2.28.19-1.45,1.15v1.35l2.49,0.27,3.1-.46S207.72,574.18,207.31,574.37Z" transform="translate(-133.33 -537.78)"/><path class="cls-6" d="M206.33,577a2.88,2.88,0,0,1-2.15-.81l-0.61-.47v1.35l2.49,0.27,3.1-.46s0.09,0-.23-0.5A5.5,5.5,0,0,1,206.33,577Z" transform="translate(-133.33 -537.78)"/><path class="cls-5" d="M168.37,574l-1.14.1-0.73.58v0.67l1.25,0.14,1.55-.23S168.57,573.92,168.37,574Z" transform="translate(-133.33 -537.78)"/><path class="cls-5" d="M171.92,575.38l-0.87.07-0.55.44v0.51l1,0.1,1.18-.18A2.8,2.8,0,0,0,171.92,575.38Z" transform="translate(-133.33 -537.78)"/><path class="cls-5" d="M210.7,574.35l-1.14.1-0.73.58v0.67l1.25,0.14,1.55-.23S210.91,574.25,210.7,574.35Z" transform="translate(-133.33 -537.78)"/></g></g></svg>