<svg xmlns="http://www.w3.org/2000/svg" xmlns:xlink="http://www.w3.org/1999/xlink" viewBox="0 0 107.33 49.02"><defs><style>.cls-1,.cls-9{fill:none;}.cls-2{isolation:isolate;}.cls-3{fill:#f2444d;}.cls-4{clip-path:url(#clip-path);}.cls-5,.cls-8{fill:#bec4b4;}.cls-5{opacity:0.9;}.cls-5,.cls-6,.cls-9{mix-blend-mode:multiply;}.cls-6{opacity:0.05;}.cls-7{fill:#b5b0a5;}.cls-8{mix-blend-mode:overlay;}.cls-9{stroke:#bec4b4;stroke-miterlimit:10;stroke-width:0.5px;opacity:0.6;}</style><clipPath id="clip-path" transform="translate(-274.33 -251.68)"><path class="cls-1" d="M327.43,278c-24.7,0-45.68-9.82-53.36-23.5a23.33,23.33,0,0,0-3.14,11.5c0,19.33,25.3,35,56.5,35s56.5-15.67,56.5-35a23.33,23.33,0,0,0-3.14-11.5C373.11,268.18,352.13,278,327.43,278Z"/></clipPath></defs><title>landmarks_sf</title><g class="cls-2"><g id="san_franciso_bridge" data-name="san franciso bridge"><rect class="cls-3" x="10.8" y="30.56" width="84.6" height="3.19"/><g class="cls-4"><path class="cls-3" d="M285.42,284.1a0.27,0.27,0,0,1-.27-0.27V253a0.27,0.27,0,1,1,.53,0v30.83A0.27,0.27,0,0,1,285.42,284.1Z" transform="translate(-274.33 -251.68)"/><path class="cls-3" d="M287.42,284.08a0.27,0.27,0,0,1-.27-0.27V253a0.27,0.27,0,1,1,.53,0v30.83A0.27,0.27,0,0,1,287.42,284.08Z" transform="translate(-274.33 -251.68)"/><path class="cls-3" d="M289.42,284.05a0.27,0.27,0,0,1-.27-0.27V253a0.27,0.27,0,1,1,.53,0v30.83A0.27,0.27,0,0,1,289.42,284.05Z" transform="translate(-274.33 -251.68)"/><path class="cls-3" d="M291.42,284a0.27,0.27,0,0,1-.27-0.27V252.93a0.27,0.27,0,1,1,.53,0v30.83A0.27,0.27,0,0,1,291.42,284Z" transform="translate(-274.33 -251.68)"/><path class="cls-3" d="M293.43,284a0.27,0.27,0,0,1-.27-0.27V252.91a0.27,0.27,0,1,1,.53,0v30.83A0.27,0.27,0,0,1,293.43,284Z" transform="translate(-274.33 -251.68)"/><path class="cls-3" d="M295.43,284a0.27,0.27,0,0,1-.27-0.27V252.88a0.27,0.27,0,1,1,.53,0v30.83A0.27,0.27,0,0,1,295.43,284Z" transform="translate(-274.33 -251.68)"/><path class="cls-3" d="M297.43,284a0.27,0.27,0,0,1-.27-0.27V252.86a0.27,0.27,0,1,1,.53,0v30.83A0.27,0.27,0,0,1,297.43,284Z" transform="translate(-274.33 -251.68)"/><path class="cls-3" d="M299.43,283.93a0.27,0.27,0,0,1-.27-0.27V252.83a0.27,0.27,0,1,1,.53,0v30.83A0.27,0.27,0,0,1,299.43,283.93Z" transform="translate(-274.33 -251.68)"/><path class="cls-3" d="M301.43,283.9a0.27,0.27,0,0,1-.27-0.27V252.81a0.27,0.27,0,1,1,.53,0v30.83A0.27,0.27,0,0,1,301.43,283.9Z" transform="translate(-274.33 -251.68)"/><path class="cls-3" d="M303.43,283.88a0.27,0.27,0,0,1-.27-0.27V252.78a0.27,0.27,0,1,1,.53,0v30.83A0.27,0.27,0,0,1,303.43,283.88Z" transform="translate(-274.33 -251.68)"/><path class="cls-3" d="M305.43,283.85a0.27,0.27,0,0,1-.27-0.27V252.75a0.27,0.27,0,0,1,.53,0v30.83A0.27,0.27,0,0,1,305.43,283.85Z" transform="translate(-274.33 -251.68)"/><path class="cls-3" d="M307.43,283.83a0.27,0.27,0,0,1-.27-0.27V252.73a0.27,0.27,0,0,1,.53,0v30.83A0.27,0.27,0,0,1,307.43,283.83Z" transform="translate(-274.33 -251.68)"/><path class="cls-3" d="M309.43,283.8a0.27,0.27,0,0,1-.27-0.27V252.7a0.27,0.27,0,1,1,.53,0v30.83A0.27,0.27,0,0,1,309.43,283.8Z" transform="translate(-274.33 -251.68)"/><path class="cls-3" d="M311.43,283.77a0.27,0.27,0,0,1-.27-0.27V252.68a0.27,0.27,0,1,1,.53,0v30.83A0.27,0.27,0,0,1,311.43,283.77Z" transform="translate(-274.33 -251.68)"/><path class="cls-3" d="M313.43,283.75a0.27,0.27,0,0,1-.27-0.27V252.65a0.27,0.27,0,1,1,.53,0v30.83A0.27,0.27,0,0,1,313.43,283.75Z" transform="translate(-274.33 -251.68)"/><path class="cls-3" d="M315.43,283.72a0.27,0.27,0,0,1-.27-0.27V252.63a0.27,0.27,0,1,1,.53,0v30.83A0.27,0.27,0,0,1,315.43,283.72Z" transform="translate(-274.33 -251.68)"/><path class="cls-3" d="M317.43,283.7a0.27,0.27,0,0,1-.27-0.27V252.6a0.27,0.27,0,1,1,.53,0v30.83A0.27,0.27,0,0,1,317.43,283.7Z" transform="translate(-274.33 -251.68)"/><path class="cls-3" d="M319.43,283.67a0.27,0.27,0,0,1-.27-0.27V252.58a0.27,0.27,0,1,1,.53,0v30.83A0.27,0.27,0,0,1,319.43,283.67Z" transform="translate(-274.33 -251.68)"/><path class="cls-3" d="M321.43,283.65a0.27,0.27,0,0,1-.27-0.27V252.55a0.27,0.27,0,1,1,.53,0v30.83A0.27,0.27,0,0,1,321.43,283.65Z" transform="translate(-274.33 -251.68)"/><path class="cls-3" d="M323.43,283.62a0.27,0.27,0,0,1-.27-0.27V252.53a0.27,0.27,0,1,1,.53,0v30.83A0.27,0.27,0,0,1,323.43,283.62Z" transform="translate(-274.33 -251.68)"/><path class="cls-3" d="M325.43,283.6a0.27,0.27,0,0,1-.27-0.27V252.5a0.27,0.27,0,1,1,.53,0v30.83A0.27,0.27,0,0,1,325.43,283.6Z" transform="translate(-274.33 -251.68)"/><path class="cls-3" d="M327.43,283.57a0.27,0.27,0,0,1-.27-0.27V252.48a0.27,0.27,0,1,1,.53,0v30.83A0.27,0.27,0,0,1,327.43,283.57Z" transform="translate(-274.33 -251.68)"/><path class="cls-3" d="M329.43,283.55a0.27,0.27,0,0,1-.27-0.27V252.45a0.27,0.27,0,0,1,.53,0v30.83A0.27,0.27,0,0,1,329.43,283.55Z" transform="translate(-274.33 -251.68)"/><path class="cls-3" d="M331.43,283.52a0.27,0.27,0,0,1-.27-0.27V252.43a0.27,0.27,0,1,1,.53,0v30.83A0.27,0.27,0,0,1,331.43,283.52Z" transform="translate(-274.33 -251.68)"/><path class="cls-3" d="M333.43,283.5a0.27,0.27,0,0,1-.27-0.27V252.4a0.27,0.27,0,1,1,.53,0v30.83A0.27,0.27,0,0,1,333.43,283.5Z" transform="translate(-274.33 -251.68)"/><path class="cls-3" d="M335.43,283.47a0.27,0.27,0,0,1-.27-0.27V252.38a0.27,0.27,0,1,1,.53,0V283.2A0.27,0.27,0,0,1,335.43,283.47Z" transform="translate(-274.33 -251.68)"/><path class="cls-3" d="M337.43,283.45a0.27,0.27,0,0,1-.27-0.27V252.35a0.27,0.27,0,1,1,.53,0v30.83A0.27,0.27,0,0,1,337.43,283.45Z" transform="translate(-274.33 -251.68)"/><path class="cls-3" d="M339.43,283.42a0.27,0.27,0,0,1-.27-0.27V252.33a0.27,0.27,0,1,1,.53,0v30.83A0.27,0.27,0,0,1,339.43,283.42Z" transform="translate(-274.33 -251.68)"/><path class="cls-3" d="M341.43,283.39a0.27,0.27,0,0,1-.27-0.27V252.3a0.27,0.27,0,1,1,.53,0v30.83A0.27,0.27,0,0,1,341.43,283.39Z" transform="translate(-274.33 -251.68)"/><path class="cls-3" d="M343.43,283.37a0.27,0.27,0,0,1-.27-0.27V252.27a0.27,0.27,0,1,1,.53,0V283.1A0.27,0.27,0,0,1,343.43,283.37Z" transform="translate(-274.33 -251.68)"/><path class="cls-3" d="M345.43,283.34a0.27,0.27,0,0,1-.27-0.27V252.25a0.27,0.27,0,1,1,.53,0v30.83A0.27,0.27,0,0,1,345.43,283.34Z" transform="translate(-274.33 -251.68)"/><path class="cls-3" d="M347.43,283.32a0.27,0.27,0,0,1-.27-0.27V252.22a0.27,0.27,0,1,1,.53,0v30.83A0.27,0.27,0,0,1,347.43,283.32Z" transform="translate(-274.33 -251.68)"/><path class="cls-3" d="M349.43,283.29a0.27,0.27,0,0,1-.27-0.27V252.2a0.27,0.27,0,0,1,.53,0V283A0.27,0.27,0,0,1,349.43,283.29Z" transform="translate(-274.33 -251.68)"/><path class="cls-3" d="M351.44,283.27a0.27,0.27,0,0,1-.27-0.27V252.17a0.27,0.27,0,1,1,.53,0V283A0.27,0.27,0,0,1,351.44,283.27Z" transform="translate(-274.33 -251.68)"/><path class="cls-3" d="M353.44,283.24a0.27,0.27,0,0,1-.27-0.27V252.15a0.27,0.27,0,1,1,.53,0V283A0.27,0.27,0,0,1,353.44,283.24Z" transform="translate(-274.33 -251.68)"/><path class="cls-3" d="M355.44,283.22a0.27,0.27,0,0,1-.27-0.27V252.12a0.27,0.27,0,0,1,.53,0V283A0.27,0.27,0,0,1,355.44,283.22Z" transform="translate(-274.33 -251.68)"/><path class="cls-3" d="M357.44,283.19a0.27,0.27,0,0,1-.27-0.27V252.1a0.27,0.27,0,1,1,.53,0v30.83A0.27,0.27,0,0,1,357.44,283.19Z" transform="translate(-274.33 -251.68)"/><path class="cls-3" d="M359.44,283.17a0.27,0.27,0,0,1-.27-0.27V252.07a0.27,0.27,0,1,1,.53,0V282.9A0.27,0.27,0,0,1,359.44,283.17Z" transform="translate(-274.33 -251.68)"/><path class="cls-3" d="M361.44,283.14a0.27,0.27,0,0,1-.27-0.27V252a0.27,0.27,0,1,1,.53,0v30.83A0.27,0.27,0,0,1,361.44,283.14Z" transform="translate(-274.33 -251.68)"/><path class="cls-3" d="M363.44,283.12a0.27,0.27,0,0,1-.27-0.27V252a0.27,0.27,0,1,1,.53,0v30.83A0.27,0.27,0,0,1,363.44,283.12Z" transform="translate(-274.33 -251.68)"/><path class="cls-3" d="M365.44,283.09a0.27,0.27,0,0,1-.27-0.27V252a0.27,0.27,0,1,1,.53,0v30.83A0.27,0.27,0,0,1,365.44,283.09Z" transform="translate(-274.33 -251.68)"/><path class="cls-3" d="M367.44,283.07a0.27,0.27,0,0,1-.27-0.27V252a0.27,0.27,0,1,1,.53,0V282.8A0.27,0.27,0,0,1,367.44,283.07Z" transform="translate(-274.33 -251.68)"/><path class="cls-3" d="M369.44,283a0.27,0.27,0,0,1-.27-0.27V251.95a0.27,0.27,0,1,1,.53,0v30.83A0.27,0.27,0,0,1,369.44,283Z" transform="translate(-274.33 -251.68)"/></g><rect class="cls-5" x="10.8" y="32.75" width="84.6" height="1"/><path class="cls-6" d="M381.67,296c0,2.49-24,4.7-53.67,4.7s-53.67-2.21-53.67-4.7,24-4.5,53.67-4.5S381.67,293.51,381.67,296Z" transform="translate(-274.33 -251.68)"/><rect class="cls-3" x="82.67" y="17.75" width="7" height="24"/><rect class="cls-7" x="79.67" y="39.32" width="13" height="4"/><rect class="cls-3" x="83.67" y="11.32" width="5" height="20"/><rect class="cls-3" x="84.67" y="4.32" width="3" height="30"/><rect class="cls-5" x="83.67" y="16.32" width="5" height="1"/><rect class="cls-5" x="84.67" y="10.15" width="3" height="1"/><rect class="cls-8" x="85.67" y="10.15" width="1" height="27.97"/><rect class="cls-5" x="83.67" y="11.32" width="1" height="6"/><rect class="cls-5" x="84.67" y="4.32" width="1" height="13"/><polygon class="cls-5" points="85.67 38.25 85.67 17.25 83.67 17.25 83.67 17.75 82.67 17.75 82.67 38.25 82.67 39.25 83.67 39.25 85.67 39.25 89.67 39.25 89.67 38.25 85.67 38.25"/><rect class="cls-5" x="79.67" y="42.32" width="13" height="1"/><rect class="cls-3" x="16.67" y="17.75" width="7" height="24"/><rect class="cls-7" x="13.67" y="39.32" width="13" height="4"/><rect class="cls-3" x="17.67" y="11.32" width="5" height="20"/><rect class="cls-3" x="18.67" y="4.32" width="3" height="30"/><rect class="cls-5" x="17.67" y="16.32" width="5" height="1"/><rect class="cls-5" x="18.67" y="10.15" width="3" height="1"/><rect class="cls-8" x="19.67" y="10.15" width="1" height="27.97"/><rect class="cls-5" x="17.67" y="11.32" width="1" height="6"/><rect class="cls-5" x="18.67" y="4.32" width="1" height="13"/><polygon class="cls-5" points="19.67 38.25 19.67 17.25 17.67 17.25 17.67 17.75 16.67 17.75 16.67 38.25 16.67 39.25 17.67 39.25 19.67 39.25 23.67 39.25 23.67 38.25 19.67 38.25"/><rect class="cls-5" x="13.67" y="42.32" width="13" height="1"/><path class="cls-9" d="M345.76,295.1" transform="translate(-274.33 -251.68)"/></g></g></svg>