<svg xmlns="http://www.w3.org/2000/svg" viewBox="0 0 107.33 73.13"><defs><style>.cls-1{isolation:isolate;}.cls-2{opacity:0.05;}.cls-2,.cls-4,.cls-6{mix-blend-mode:multiply;}.cls-3{fill:#66ce64;}.cls-4,.cls-6{fill:#bec4b4;}.cls-4{opacity:0.3;}.cls-5{fill:#cbc5b7;}.cls-6{opacity:0.2;}</style></defs><title>landmarks_easter_island</title><g class="cls-1"><g id="easter_island" data-name="easter island"><ellipse class="cls-2" cx="53.67" cy="68.57" rx="53.67" ry="4.56"/><path class="cls-3" d="M499.33,294.36c-6,3-11.71,4.64-26.17,4.64S453,297.67,447,294.36c-3.88-2.14,11.71-8,26.17-8S503.3,292.39,499.33,294.36Z" transform="translate(-418.33 -227.37)"/><path class="cls-4" d="M490.33,290.78c-0.09,2.88-7.69,5.22-17.17,5.22S456,293.66,456,290.78s7.69-10.44,17.17-10.44S490.66,279.76,490.33,290.78Z" transform="translate(-418.33 -227.37)"/><path class="cls-5" d="M457.16,291.21l2.13-9.09,1.35-5.73c0.12-.5.2-2.14,0.72-2.36,1.28-.55,10.52-3.43,8-6.15-0.46-.5.63-3.3,0.78-3.94,0.34-1.43.83-2.9,1-4.36l2.94-21.07c0.67-4.78.83-9,6.32-10.73,3.07-1,6.36-.1,9.15,1.3,1.21,0.6,4.49,2,4.87,3.35l1,3.74c0.65,2.35,1.13,4,0,6.46-0.62,1.35,0,1.88.4,3.35,1.71,6.74,0,13.25-.95,19.93-0.37,2.68-.73,5.37-1,8.06-0.07.61,0.06,2-.3,2.49-0.54.77-2.8,1.5-3.63,1-0.82,1.62.73,4.6,0.91,6.29a12.1,12.1,0,0,1-.43,5.37c-1.48,3.94-8,4.38-11.4,4.67a82.37,82.37,0,0,1-10,.74c-2.08-.08-5.11.26-7-0.58C461.24,293.67,457,292.11,457.16,291.21Z" transform="translate(-418.33 -227.37)"/><path class="cls-4" d="M476,237.06l7.13,2.33s4.67-6,7-.13l0.78,3.63s4.41,2.33,5.05,3.24h0a11.31,11.31,0,0,0-.93-2.73c2.46-4.41.65-6.74,0.65-6.74l-0.07-.27h-0.19S483.21,224.88,476,237.06Z" transform="translate(-418.33 -227.37)"/><path class="cls-4" d="M494.35,255.45s5.31-9.33-5.83-7.13c0,0-6.22,1.3-5.83,4C482.69,252.34,484.24,254,494.35,255.45Z" transform="translate(-418.33 -227.37)"/><path class="cls-4" d="M483.47,256.88s8.68-.65,11,3.24C494.48,260.12,490.59,257.66,483.47,256.88Z" transform="translate(-418.33 -227.37)"/><path class="cls-6" d="M493.25,276.68c-6-.84-18.19-3-23-7.09,0,0,8.92,22.69,11.4,23.7l0.35,0.14c3.33-.43,7.26-1.42,8.37-4.37a12.1,12.1,0,0,0,.43-5.37c-0.18-1.69-1.73-4.67-.91-6.29C490.66,277.79,492.42,277.31,493.25,276.68Z" transform="translate(-418.33 -227.37)"/><path class="cls-4" d="M470,269.33s4,4.52,19.07,6.73l1.37,1.47S477.52,276.34,470,269.33Z" transform="translate(-418.33 -227.37)"/></g></g></svg>