<svg xmlns="http://www.w3.org/2000/svg" viewBox="0 0 107.33 101.2"><defs><style>.cls-1{isolation:isolate;}.cls-2{opacity:0.05;}.cls-2,.cls-4,.cls-6,.cls-9{mix-blend-mode:multiply;}.cls-3{fill:#cdbb8d;}.cls-4{fill:#bec4b4;opacity:0.4;}.cls-5{fill:#fff;}.cls-5,.cls-6{opacity:0.8;}.cls-11,.cls-6,.cls-7,.cls-8{fill:none;stroke-miterlimit:10;}.cls-6{stroke:#bec4b4;}.cls-7{stroke:#a99e7b;stroke-width:2px;}.cls-8{stroke:#363833;stroke-linecap:square;}.cls-9{fill:#231f20;opacity:0.1;}.cls-10{fill:#666a68;opacity:0.6;}.cls-11{stroke:#fff;opacity:0.2;mix-blend-mode:overlay;}</style></defs><title>landmarks_big_ben</title><g class="cls-1"><g id="big_ben" data-name="big ben"><ellipse class="cls-2" cx="53.67" cy="96.7" rx="53.67" ry="4.5"/><rect class="cls-3" x="23.23" y="74.1" width="66.88" height="22.2"/><rect class="cls-3" x="22.62" y="42.85" width="12.85" height="52.86"/><rect class="cls-3" x="22.33" y="24.87" width="13.43" height="4.67"/><rect class="cls-3" x="25.54" y="13.02" width="7.01" height="6.72"/><polygon class="cls-3" points="29.05 13.73 26.04 13.73 27.55 6.86 29.05 0 30.55 6.86 32.06 13.73 29.05 13.73"/><polygon class="cls-3" points="25.64 19.54 22.72 25.77 35.38 25.77 32.16 19.54 25.64 19.54"/><polygon class="cls-3" points="22.23 28.28 21.46 29.44 21.46 41.23 22.63 43.85 35.67 43.85 36.64 41.52 36.64 29.44 35.38 28.28 22.23 28.28"/><rect class="cls-4" x="23.74" y="30.7" width="10.61" height="9.64"/><circle class="cls-5" cx="29.05" cy="35.52" r="3.98"/><line class="cls-6" x1="25.1" y1="46.53" x2="25.1" y2="53.2"/><line class="cls-6" x1="27.1" y1="46.53" x2="27.1" y2="53.2"/><line class="cls-6" x1="29.1" y1="46.53" x2="29.1" y2="53.2"/><line class="cls-6" x1="31.1" y1="46.53" x2="31.1" y2="53.2"/><line class="cls-6" x1="33.1" y1="46.53" x2="33.1" y2="53.2"/><line class="cls-6" x1="25.1" y1="55.53" x2="25.1" y2="62.2"/><line class="cls-6" x1="27.1" y1="55.53" x2="27.1" y2="62.2"/><line class="cls-6" x1="29.1" y1="55.53" x2="29.1" y2="62.2"/><line class="cls-6" x1="31.1" y1="55.53" x2="31.1" y2="62.2"/><line class="cls-6" x1="33.1" y1="55.53" x2="33.1" y2="62.2"/><line class="cls-6" x1="25.1" y1="64.53" x2="25.1" y2="71.2"/><line class="cls-6" x1="27.1" y1="64.53" x2="27.1" y2="71.2"/><line class="cls-6" x1="29.1" y1="64.53" x2="29.1" y2="71.2"/><line class="cls-6" x1="31.1" y1="64.53" x2="31.1" y2="71.2"/><line class="cls-6" x1="33.1" y1="64.53" x2="33.1" y2="71.2"/><line class="cls-6" x1="25.1" y1="73.53" x2="25.1" y2="80.2"/><line class="cls-6" x1="27.1" y1="73.53" x2="27.1" y2="80.2"/><line class="cls-6" x1="29.1" y1="73.53" x2="29.1" y2="80.2"/><line class="cls-6" x1="31.1" y1="73.53" x2="31.1" y2="80.2"/><line class="cls-6" x1="33.1" y1="73.53" x2="33.1" y2="80.2"/><line class="cls-6" x1="25.1" y1="82.53" x2="25.1" y2="89.2"/><line class="cls-6" x1="27.1" y1="82.53" x2="27.1" y2="89.2"/><line class="cls-6" x1="29.1" y1="82.53" x2="29.1" y2="89.2"/><line class="cls-6" x1="31.1" y1="82.53" x2="31.1" y2="89.2"/><line class="cls-6" x1="33.1" y1="82.53" x2="33.1" y2="89.2"/><line class="cls-6" x1="25.1" y1="91.53" x2="25.1" y2="94.2"/><line class="cls-6" x1="27.1" y1="91.53" x2="27.1" y2="94.2"/><line class="cls-6" x1="29.1" y1="91.53" x2="29.1" y2="94.2"/><line class="cls-6" x1="31.1" y1="91.53" x2="31.1" y2="94.2"/><line class="cls-6" x1="33.1" y1="91.53" x2="33.1" y2="94.2"/><line class="cls-7" x1="46.9" y1="96.3" x2="46.9" y2="71.2"/><line class="cls-7" x1="56.9" y1="96.3" x2="56.9" y2="71.2"/><line class="cls-7" x1="66.9" y1="96.3" x2="66.9" y2="71.2"/><line class="cls-7" x1="76.9" y1="96.3" x2="76.9" y2="71.2"/><path class="cls-6" d="M310.43,558" transform="translate(-273.33 -477.8)"/><path class="cls-6" d="M310.43,551.33" transform="translate(-273.33 -477.8)"/><line class="cls-6" x1="39.1" y1="75.53" x2="39.1" y2="80.2"/><line class="cls-6" x1="41.1" y1="75.53" x2="41.1" y2="80.2"/><line class="cls-6" x1="43.1" y1="75.53" x2="43.1" y2="80.2"/><line class="cls-6" x1="39.1" y1="84.53" x2="39.1" y2="89.2"/><line class="cls-6" x1="41.1" y1="84.53" x2="41.1" y2="89.2"/><line class="cls-6" x1="43.1" y1="84.53" x2="43.1" y2="89.2"/><line class="cls-6" x1="50.1" y1="75.53" x2="50.1" y2="80.2"/><line class="cls-6" x1="52.1" y1="75.53" x2="52.1" y2="80.2"/><line class="cls-6" x1="54.1" y1="75.53" x2="54.1" y2="80.2"/><line class="cls-6" x1="50.1" y1="84.53" x2="50.1" y2="89.2"/><line class="cls-6" x1="52.1" y1="84.53" x2="52.1" y2="89.2"/><line class="cls-6" x1="54.1" y1="84.53" x2="54.1" y2="89.2"/><line class="cls-6" x1="60.1" y1="75.53" x2="60.1" y2="80.2"/><line class="cls-6" x1="62.1" y1="75.53" x2="62.1" y2="80.2"/><line class="cls-6" x1="64.1" y1="75.53" x2="64.1" y2="80.2"/><line class="cls-6" x1="60.1" y1="84.53" x2="60.1" y2="89.2"/><line class="cls-6" x1="62.1" y1="84.53" x2="62.1" y2="89.2"/><line class="cls-6" x1="64.1" y1="84.53" x2="64.1" y2="89.2"/><line class="cls-6" x1="70.1" y1="75.53" x2="70.1" y2="80.2"/><line class="cls-6" x1="72.1" y1="75.53" x2="72.1" y2="80.2"/><line class="cls-6" x1="74.1" y1="75.53" x2="74.1" y2="80.2"/><line class="cls-6" x1="70.1" y1="84.53" x2="70.1" y2="89.2"/><line class="cls-6" x1="72.1" y1="84.53" x2="72.1" y2="89.2"/><line class="cls-6" x1="74.1" y1="84.53" x2="74.1" y2="89.2"/><line class="cls-6" x1="82.13" y1="75.53" x2="82.13" y2="80.2"/><line class="cls-6" x1="84.13" y1="75.53" x2="84.13" y2="80.2"/><line class="cls-6" x1="86.13" y1="75.53" x2="86.13" y2="80.2"/><line class="cls-6" x1="82.13" y1="84.53" x2="82.13" y2="89.2"/><line class="cls-6" x1="84.13" y1="84.53" x2="84.13" y2="89.2"/><line class="cls-6" x1="86.13" y1="84.53" x2="86.13" y2="89.2"/><line class="cls-6" x1="24.1" y1="24.98" x2="24.1" y2="28.45"/><line class="cls-6" x1="26.1" y1="24.98" x2="26.1" y2="28.45"/><line class="cls-6" x1="28.1" y1="24.98" x2="28.1" y2="28.45"/><line class="cls-6" x1="30.1" y1="24.98" x2="30.1" y2="28.45"/><line class="cls-6" x1="32.1" y1="24.98" x2="32.1" y2="28.45"/><line class="cls-6" x1="34.1" y1="24.98" x2="34.1" y2="28.45"/><line class="cls-6" x1="26.15" y1="13.23" x2="26.15" y2="16.7"/><line class="cls-6" x1="28.15" y1="13.23" x2="28.15" y2="16.7"/><line class="cls-6" x1="30.15" y1="13.23" x2="30.15" y2="16.7"/><line class="cls-6" x1="32.15" y1="13.23" x2="32.15" y2="16.7"/><line class="cls-8" x1="29.23" y1="32.2" x2="29.23" y2="35.67"/><line class="cls-8" x1="29.23" y1="35.77" x2="32" y2="35.77"/><polygon class="cls-9" points="22.56 43.45 35.73 43.45 36.62 41.32 21.61 41.32 22.56 43.45"/><polygon class="cls-9" points="36.71 29.51 35.5 28.4 22.36 28.4 21.62 29.51 36.71 29.51"/><path class="cls-10" d="M313.08,574.1v-2.94a1.39,1.39,0,0,1,1.38-1.4h0a1.39,1.39,0,0,1,1.38,1.4v2.94h-2.77Z" transform="translate(-273.33 -477.8)"/><path class="cls-10" d="M324.08,574.1v-2.94a1.39,1.39,0,0,1,1.38-1.4h0a1.39,1.39,0,0,1,1.38,1.4v2.94h-2.77Z" transform="translate(-273.33 -477.8)"/><path class="cls-10" d="M334.08,574.1v-2.94a1.39,1.39,0,0,1,1.38-1.4h0a1.39,1.39,0,0,1,1.38,1.4v2.94h-2.77Z" transform="translate(-273.33 -477.8)"/><path class="cls-10" d="M344.08,574.1v-2.94a1.39,1.39,0,0,1,1.38-1.4h0a1.39,1.39,0,0,1,1.38,1.4v2.94h-2.77Z" transform="translate(-273.33 -477.8)"/><path class="cls-10" d="M356.08,574.1v-2.94a1.39,1.39,0,0,1,1.38-1.4h0a1.39,1.39,0,0,1,1.38,1.4v2.94h-2.77Z" transform="translate(-273.33 -477.8)"/><line class="cls-11" x1="48.4" y1="96.3" x2="48.4" y2="74.2"/><line class="cls-11" x1="58.23" y1="96.3" x2="58.23" y2="74.2"/><line class="cls-11" x1="68.4" y1="96.3" x2="68.4" y2="74.2"/><line class="cls-11" x1="78.4" y1="96.3" x2="78.4" y2="74.2"/><line class="cls-11" x1="45.4" y1="96.3" x2="45.4" y2="74.2"/><line class="cls-11" x1="55.4" y1="96.3" x2="55.4" y2="74.2"/><line class="cls-11" x1="65.4" y1="96.3" x2="65.4" y2="74.2"/><line class="cls-11" x1="75.15" y1="96.3" x2="75.15" y2="74.2"/></g></g></svg>