<svg xmlns="http://www.w3.org/2000/svg" viewBox="0 0 107.33 76.83"><defs><style>.cls-1{isolation:isolate;}.cls-2{opacity:0.05;}.cls-2,.cls-4,.cls-5{mix-blend-mode:multiply;}.cls-3{fill:#e2e8d8;}.cls-4,.cls-6,.cls-7{fill:#bec4b4;}.cls-4,.cls-5,.cls-7{opacity:0.3;}</style></defs><title>landmarks_taj_mahal</title><g class="cls-1"><g id="taj_mahal" data-name="taj mahal"><ellipse class="cls-2" cx="53.67" cy="72.27" rx="53.67" ry="4.56"/><path class="cls-3" d="M604.74,254.43a6,6,0,0,0-3.24-5.24,4.27,4.27,0,0,0-2.57-2,3.81,3.81,0,0,0-2.45,1.91,6,6,0,0,0-3.37,5.3,4.9,4.9,0,0,0,.9,2.75c0,0.09,0,.19,0,0.29h-0.36v5.81h10.52v-5.81h-0.56A5,5,0,0,0,604.74,254.43Z" transform="translate(-565.33 -223.67)"/><path class="cls-4" d="M598.78,260.89V258a1.15,1.15,0,0,1,1.28-.95h0a1.15,1.15,0,0,1,1.28.95v2.89h-2.56Z" transform="translate(-565.33 -223.67)"/><path class="cls-4" d="M594.63,260.89v-2.5a1.13,1.13,0,0,1,1.28-.82h0a1.13,1.13,0,0,1,1.28.82v2.5h-2.56Z" transform="translate(-565.33 -223.67)"/><path class="cls-3" d="M643.77,254.43a6,6,0,0,0-3.24-5.24,4.28,4.28,0,0,0-2.57-2,3.82,3.82,0,0,0-2.45,1.91,6,6,0,0,0-3.37,5.3,4.9,4.9,0,0,0,.9,2.75c0,0.09,0,.19,0,0.29H632.7v5.81h10.52v-5.81h-0.56A5,5,0,0,0,643.77,254.43Z" transform="translate(-565.33 -223.67)"/><path class="cls-4" d="M637.6,260.89V258a1.15,1.15,0,0,0-1.28-.95h0A1.15,1.15,0,0,0,635,258v2.89h2.56Z" transform="translate(-565.33 -223.67)"/><path class="cls-4" d="M641.75,260.89v-2.5a1.13,1.13,0,0,0-1.28-.82h0a1.13,1.13,0,0,0-1.28.82v2.5h2.56Z" transform="translate(-565.33 -223.67)"/><path class="cls-3" d="M657.2,270.87h-1l-0.4-9.4h0.67v-3H656.2a2.59,2.59,0,0,0,.58-1.57,3.1,3.1,0,0,0-1.68-2.71,2.22,2.22,0,0,0-1.33-1,2,2,0,0,0-1.27,1,3.1,3.1,0,0,0-1.74,2.74,2.53,2.53,0,0,0,.47,1.42v0.15H651v3h0.67l-0.4,9.4h-1v1h0.93L650.89,281h-0.55v1h0.5l-0.13,9h6.1l-0.13-9h0.5v-1h-0.55l-0.38-9.14h0.93v-1Z" transform="translate(-565.33 -223.67)"/><path class="cls-4" d="M651.26,272.41l-0.1,2.6s2.64-4.31,4.88-1.63l0.1-1h-4.88Z" transform="translate(-565.33 -223.67)"/><path class="cls-4" d="M650.87,282.44l-0.11,3s3.08-5,5.7-1.9l0.11-1.14h-5.7Z" transform="translate(-565.33 -223.67)"/><path class="cls-4" d="M651.56,262.35l-0.09,2.32s2.29-3.85,4.24-1.45l0.09-.87h-4.24Z" transform="translate(-565.33 -223.67)"/><path class="cls-3" d="M585.77,270.87h-1l-0.4-9.4h0.67v-3h-0.29a2.59,2.59,0,0,0,.58-1.57,3.1,3.1,0,0,0-1.68-2.71,2.21,2.21,0,0,0-1.33-1,2,2,0,0,0-1.27,1,3.11,3.11,0,0,0-1.74,2.74,2.53,2.53,0,0,0,.47,1.42v0.15h-0.19v3h0.67l-0.4,9.4h-1v1h0.93L579.47,281h-0.55v1h0.5l-0.13,9h6.1l-0.13-9h0.5v-1h-0.55l-0.38-9.14h0.93v-1Z" transform="translate(-565.33 -223.67)"/><path class="cls-4" d="M579.84,272.41l-0.1,2.6s2.64-4.31,4.88-1.63l0.1-1h-4.88Z" transform="translate(-565.33 -223.67)"/><path class="cls-4" d="M579.44,282.44l-0.11,3s3.08-5,5.7-1.9l0.11-1.14h-5.7Z" transform="translate(-565.33 -223.67)"/><path class="cls-4" d="M580.14,262.35l-0.09,2.32s2.29-3.85,4.24-1.45l0.08-.87h-4.24Z" transform="translate(-565.33 -223.67)"/><polygon class="cls-3" points="17.4 67.35 17.4 40.3 26.15 38.45 38.14 38.45 38.14 32.63 67.88 32.63 67.88 38.45 79.88 38.36 88.82 40.22 88.65 67.35 17.4 67.35"/><path class="cls-4" d="M610.08,291.17V271.61s5.21-5.75,8.66-5.75,8.55,4.6,8.74,6.13,0,19.17,0,19.17H610.08Z" transform="translate(-565.33 -223.67)"/><path class="cls-4" d="M595,278.68v-7.84s1.94-2.43,3.4-2.43,4,1.94,4.06,2.59,0,7.68,0,7.68H595Z" transform="translate(-565.33 -223.67)"/><path class="cls-4" d="M595,291.17v-7.67s1.94-2.43,3.4-2.43,4,1.94,4.06,2.59,0,7.51,0,7.51H595Z" transform="translate(-565.33 -223.67)"/><path class="cls-4" d="M635.82,278.68v-7.84s2.19-2.43,3.64-2.43,3.64,1.94,3.73,2.59,0,7.68,0,7.68h-7.37Z" transform="translate(-565.33 -223.67)"/><path class="cls-4" d="M635.82,291.17v-7.67s2.19-2.43,3.64-2.43,3.64,1.94,3.73,2.59,0,7.51,0,7.51h-7.37Z" transform="translate(-565.33 -223.67)"/><path class="cls-4" d="M647.38,278.68v-7.21s1.61-2.29,2.82-2.29,2.92,1.83,3,2.45,0,7.05,0,7.05h-5.81Z" transform="translate(-565.33 -223.67)"/><path class="cls-4" d="M647.38,291.17v-6.94s1.38-2.2,2.44-2.2,2.47,1.76,2.52,2.35,0,6.79,0,6.79h-5Z" transform="translate(-565.33 -223.67)"/><path class="cls-4" d="M591,278.68v-7.21s-2.18-2.29-3.4-2.29a4.65,4.65,0,0,0-3.15,2.45c-0.07.61,0,7.05,0,7.05H591Z" transform="translate(-565.33 -223.67)"/><path class="cls-4" d="M591,291.17v-6.94s-2-2.2-3-2.2-2.71,1.76-2.77,2.35,0,6.79,0,6.79H591Z" transform="translate(-565.33 -223.67)"/><path class="cls-3" d="M667,264h-1.3l-0.54-12.54H666v-4h-0.39a3.45,3.45,0,0,0,.77-2.1,4.14,4.14,0,0,0-2.24-3.61,3,3,0,0,0-1.77-1.36,2.63,2.63,0,0,0-1.69,1.32,4.14,4.14,0,0,0-2.32,3.66,3.37,3.37,0,0,0,.62,1.9v0.2h-0.25v4h0.9L659.12,264h-1.3v1.35h1.24l-0.51,12.18h-0.73v1.35h0.67l-0.17,12h8.14l-0.17-12H667v-1.35h-0.73l-0.51-12.18H667V264Z" transform="translate(-565.33 -223.67)"/><path class="cls-4" d="M659,266l-0.13,3.47s3.52-5.75,6.51-2.17l0.13-1.3H659Z" transform="translate(-565.33 -223.67)"/><path class="cls-4" d="M658.52,279.42l-0.15,4.05s4.1-6.71,7.6-2.53l0.15-1.52h-7.6Z" transform="translate(-565.33 -223.67)"/><path class="cls-4" d="M659.65,252.63l-0.11,3.1s2.94-5.13,5.45-1.94l0.11-1.16h-5.45Z" transform="translate(-565.33 -223.67)"/><path class="cls-3" d="M578.91,264h-1.3l-0.54-12.54H578v-4h-0.39a3.45,3.45,0,0,0,.77-2.1,4.14,4.14,0,0,0-2.24-3.61,3,3,0,0,0-1.77-1.36,2.63,2.63,0,0,0-1.69,1.32,4.14,4.14,0,0,0-2.32,3.66,3.37,3.37,0,0,0,.62,1.9v0.2h-0.25v4h0.9L571.08,264h-1.3v1.35H571l-0.51,12.18h-0.73v1.35h0.67l-0.17,12h8.14l-0.17-12h0.67v-1.35h-0.73l-0.51-12.18h1.24V264Z" transform="translate(-565.33 -223.67)"/><path class="cls-4" d="M571,266l-0.13,3.47s3.52-5.75,6.51-2.17l0.13-1.3H571Z" transform="translate(-565.33 -223.67)"/><path class="cls-4" d="M570.47,279.42l-0.15,4.05s4.1-6.71,7.6-2.53l0.15-1.52h-7.6Z" transform="translate(-565.33 -223.67)"/><path class="cls-4" d="M571.4,252.63l-0.11,3.1s3.05-5.13,5.66-1.94l0.11-1.16H571.4Z" transform="translate(-565.33 -223.67)"/><path class="cls-4" d="M627.47,272c-0.19-1.53-5.29-6.13-8.74-6.13s-8.66,5.75-8.66,5.75v4.56a10,10,0,0,1,2.88-.43h1.66a10,10,0,0,1,10,10v5.46h2.88S627.66,273.53,627.47,272Z" transform="translate(-565.33 -223.67)"/><path class="cls-4" d="M643.19,271c-0.08-.65-2.27-2.59-3.73-2.59s-3.64,2.43-3.64,2.43v1.66c3.28,0,6,2.67,6.54,6.18h0.83S643.27,271.65,643.19,271Z" transform="translate(-565.33 -223.67)"/><path class="cls-4" d="M643.19,283.65c-0.08-.65-2.27-2.59-3.73-2.59s-3.64,2.43-3.64,2.43v1.66c3.28,0,6,2.67,6.54,6.18h0.83S643.27,284.3,643.19,283.65Z" transform="translate(-565.33 -223.67)"/><path class="cls-4" d="M595.09,271c0.08-.65,2.27-2.59,3.73-2.59s3.64,2.43,3.64,2.43v1.66c-3.28,0-6,2.67-6.54,6.18h-0.83S595,271.65,595.09,271Z" transform="translate(-565.33 -223.67)"/><path class="cls-4" d="M595.09,283.65c0.08-.65,2.27-2.59,3.73-2.59s3.64,2.43,3.64,2.43v1.66c-3.28,0-6,2.67-6.54,6.18h-0.83S595,284.3,595.09,283.65Z" transform="translate(-565.33 -223.67)"/><path class="cls-4" d="M652.29,270.34a3.52,3.52,0,0,0-2.09-1.16c-1.22,0-2.82,2.29-2.82,2.29v3.78Z" transform="translate(-565.33 -223.67)"/><path class="cls-4" d="M651.89,283.63c-0.61-.6-1-1.6-1.69-1.6-1.22,0-2.82,2.29-2.82,2.29v3.78Z" transform="translate(-565.33 -223.67)"/><path class="cls-4" d="M585.76,270.23a4.37,4.37,0,0,1,2.37-1.05c1.06-.09,2.82,2.29,2.82,2.29v3.78Z" transform="translate(-565.33 -223.67)"/><path class="cls-4" d="M586,283.18a3.51,3.51,0,0,1,2.09-1.16c1.22,0,2.82,2.29,2.82,2.29v3.78Z" transform="translate(-565.33 -223.67)"/><rect class="cls-3" x="4.44" y="67.19" width="98" height="4.98"/><path class="cls-3" d="M625.73,234c-0.73-2.2-4-4.32-6-5.21A1.64,1.64,0,0,0,620,228a1.66,1.66,0,0,0-1.17-1.58v-2.75h-1v2.75a1.64,1.64,0,0,0-1,2.37c-2.12.92-4.85,3.31-5.48,5.06A17.14,17.14,0,0,0,601.77,249a14,14,0,0,0,2.58,7.87c0,0.53.05,1.07,0.08,1.64l1.15,0c3.41,4,8.52,6.53,12.8,6.53s9.37-2.56,12.78-6.51l0.46,0c0-.21,0-0.4,0-0.6A14.39,14.39,0,0,0,635,249,17.14,17.14,0,0,0,625.73,234Z" transform="translate(-565.33 -223.67)"/><path class="cls-4" d="M602.35,252.8a15.09,15.09,0,0,0,.7,1.62,89.7,89.7,0,0,1,30.48,0,14.39,14.39,0,0,0,.81-1.9A83.94,83.94,0,0,0,619,251.22,81.57,81.57,0,0,0,602.35,252.8Z" transform="translate(-565.33 -223.67)"/><g class="cls-5"><path class="cls-6" d="M633.6,247.11c0-.47,0-0.93-0.05-1.39A16.1,16.1,0,0,0,625.61,235a8.3,8.3,0,0,0-3.28-3.67,28.39,28.39,0,0,1,2.33,11.43,29.36,29.36,0,0,1-.86,7.11,72.3,72.3,0,0,1,9.43,1A18.52,18.52,0,0,0,633.6,247.11Z" transform="translate(-565.33 -223.67)"/></g><path class="cls-7" d="M632.67,290.9V256.3l-6.59-1v10.93c1.42,1.1,2.51,2.36,2.59,3,0.15,1.2,0,20.32,0,21.67h4Z" transform="translate(-565.33 -223.67)"/></g></g></svg>