<svg xmlns="http://www.w3.org/2000/svg" viewBox="0 0 107.33 72.29"><defs><style>.cls-1{isolation:isolate;}.cls-2{opacity:0.05;}.cls-12,.cls-13,.cls-2,.cls-5,.cls-7{mix-blend-mode:multiply;}.cls-3{fill:#dddad0;}.cls-4{fill:#c4c1b3;}.cls-5,.cls-7{opacity:0.4;}.cls-12,.cls-6,.cls-7{fill:#bec4b4;}.cls-8{fill:#cbcec6;}.cls-9{fill:none;}.cls-10{fill:#e0ddd1;}.cls-11{fill:#e2e8d8;}.cls-12{opacity:0.1;}.cls-13{opacity:0.6;}</style></defs><title>landmarks_colosseum</title><g class="cls-1"><g id="colosseum"><path class="cls-2" d="M673,437.57c0,2.66-24,4.82-53.67,4.82s-53.67-2.16-53.67-4.82,24-12.82,53.67-12.82S673,434.91,673,437.57Z" transform="translate(-565.71 -370.1)"/><path class="cls-3" d="M656.51,435.7c7.68-1.1,9.59-3.7,9.59-3.84S664.49,407,664.49,407c-2.38-8-37.62-7.5-37.62-7.5l0.14,1.89-0.63.21,0.35,3.71,8.2,17.73,6.29,12.52c0-1.79,0-4.32,0-4.87,0-.87-0.07-3.11,1.59-3.11s1.88,1,1.88,1v7.49l1.73,0.07v-7.41a1.41,1.41,0,1,1,2.82,0v7.45c0.7,0,1.38,0,2,0v-7.27a1.05,1.05,0,1,1,2.09,0V436l1.52-.13Z" transform="translate(-565.71 -370.1)"/><path class="cls-4" d="M641.25,430.08s2.25-1,2.25,1.17,0.17,4.25.17,4.25l1.07,0.58v-7.49s-0.19-1-1.88-1S641.46,429.88,641.25,430.08Z" transform="translate(-565.71 -370.1)"/><path class="cls-4" d="M646.46,430.17s1.75-1.32,1.75,1,0.14,4.5.14,4.5l0.89,0.61v-7.93a1.41,1.41,0,0,0-1.56-1.07C646.26,427.25,646.42,429.71,646.46,430.17Z" transform="translate(-565.71 -370.1)"/><path class="cls-4" d="M651.29,430.21s1.33-1,1.33,1.14,0.1,4.16.1,4.16l0.63,0.57v-7.34a1.12,1.12,0,0,0-1.11-1C651.24,427.75,651.25,429,651.29,430.21Z" transform="translate(-565.71 -370.1)"/><polygon class="cls-4" points="69.9 32.4 69.9 35.62 71.9 35.84 71.79 32.62 69.9 32.4"/><polygon class="cls-4" points="80.57 33.29 80.46 36.18 82.23 36.84 82.01 33.4 80.57 33.29"/><polygon class="cls-4" points="88.68 35.06 88.68 38.29 89.9 38.84 90.01 35.51 88.68 35.06"/><polygon class="cls-4" points="94.23 36.06 94.23 38.62 94.9 38.84 94.9 36.51 94.23 36.06"/><polygon class="cls-4" points="96.12 37.06 96.01 39.06 96.68 39.4 96.79 37.62 96.12 37.06"/><g class="cls-5"><path class="cls-6" d="M644.78,435.35V436H645Z" transform="translate(-565.71 -370.1)"/><path class="cls-6" d="M641.26,435.47c0-1.79,0-4.32,0-4.87,0-.87-0.07-3.11,1.59-3.11a3.27,3.27,0,0,1,.57,0L643,424.7,642.22,423v-2.52l-4.94-.53-2.84-10.09,0.1-1.47-0.84-4.94-7.1,0,0.16,1.71,8.2,17.73,2.62,5.22a2.14,2.14,0,0,1,.45-0.05,2.52,2.52,0,0,1,2.4,2.74v3Z" transform="translate(-565.71 -370.1)"/></g><path class="cls-3" d="M643.43,437.39l-3-8.51,1.05-1.16-0.53-2.94-0.74-1.68v-2.52l-4.94-.53L632.4,410l0.1-1.47-0.84-4.94-16.71.11-2,.42,0.32,7,2,10.51,6.41,4.94,3.57,11.24,1.1,0.13a33.42,33.42,0,0,1-.63-4.89c0-1.92.07-4.59,2.26-4.59a3.56,3.56,0,0,1,3.08,2.12v7.59c0.9,0,1.8,0,2.68,0,0-2.54.07-8.81,0-8.73A3.2,3.2,0,0,1,636,428.2a2.52,2.52,0,0,1,2.4,2.74v7C641.36,437.68,643.43,437.39,643.43,437.39Z" transform="translate(-565.71 -370.1)"/><path class="cls-4" d="M631.57,420.41v-6.13s-0.35-3.27-2.93-3.27a2.45,2.45,0,0,0-2.78,2.55,3.26,3.26,0,0,1,4.32.45v6.36Z" transform="translate(-565.71 -370.1)"/><path class="cls-7" d="M625.92,437.81l1.1,0.13a33.42,33.42,0,0,1-.63-4.89c0-1.69.06-4,1.57-4.48h0l-0.84-2.31,0.21-2.68-0.47-3.15-5.2-.42-2.47-9.51-0.89-1.16,0.53-1.31-0.32-1.89,0.63-.42,0.58-1.47-0.75-.6-3.35,0-2,.42,0.32,7,2,10.51,6.41,4.94,0.5,1.58c1.19,0.48,2.09,2.7,2.09,3.95v2.63Z" transform="translate(-565.71 -370.1)"/><path class="cls-8" d="M576.43,437.08l-1.48-.41" transform="translate(-565.71 -370.1)"/><path class="cls-8" d="M573.91,436.34l-1.09-.39" transform="translate(-565.71 -370.1)"/><path class="cls-8" d="M572.17,435.69l-0.94-.41" transform="translate(-565.71 -370.1)"/><path class="cls-4" d="M618.29,431.84c0-3,.79-3.75.79-3.75l0-.16-0.34-.08a2.53,2.53,0,0,0-2.53,2.53v10l0,0h0l2-2.71v-5.86Z" transform="translate(-565.71 -370.1)"/><path class="cls-4" d="M608.4,431.88c0-4,2.57-3.53,2.57-3.53v-0.12a1.24,1.24,0,0,0-.65-0.2l-1-.23a2.69,2.69,0,0,0-2.57,2.8v9.73l0,0h0l1.54-1.43v-7.06Z" transform="translate(-565.71 -370.1)"/><path class="cls-4" d="M601.73,428l-0.89-.23a2.55,2.55,0,0,0-2.36,2.71V440l2.37-1.44v-6.89c0-3.36,1.74-2.84,2.2-2.64A1.78,1.78,0,0,0,601.73,428Z" transform="translate(-565.71 -370.1)"/><path class="cls-4" d="M594.41,427.83l-0.68-.22c-1,0-1.81,1.2-1.81,2.68v9.28l2-1.24v-6.62c0-3.06,1-3.27,1.33-3.25A1.12,1.12,0,0,0,594.41,427.83Z" transform="translate(-565.71 -370.1)"/><path class="cls-4" d="M587.6,428.28l-0.61-.22c-0.9,0-1.63,1.2-1.63,2.68v8.06l0.05,0.07,2.8-1.13v-5.92a4,4,0,0,1,.44-2.26A1.68,1.68,0,0,0,587.6,428.28Z" transform="translate(-565.71 -370.1)"/><path class="cls-4" d="M582.69,428.27c-1.13-.05-1.51,1.56-1.51,1.56l-0.26,8.32,3-.88c0.09-2.62.18-5.88,0.15-6.41C584.14,430.1,583.81,428.32,582.69,428.27Z" transform="translate(-565.71 -370.1)"/><path class="cls-4" d="M578.52,427.55c-0.94-.05-1.25,1.56-1.25,1.56l-0.21,8.17,0.15,0,2.31-.94c0.07-2.59.15-5.72,0.12-6.24C579.73,429.38,579.46,427.6,578.52,427.55Z" transform="translate(-565.71 -370.1)"/><path class="cls-8" d="M575,436.66l0.12-7.23s0.19-1.53.76-1.48,0.73,1.73.68,2.45c0,0.54,0,4.11-.09,6.67" transform="translate(-565.71 -370.1)"/><path class="cls-8" d="M572.82,435.95l0.08-6.76s0.14-1.6.56-1.55,0.54,1.81.5,2.56c0,0.51,0,3.58-.05,6.14" transform="translate(-565.71 -370.1)"/><path class="cls-8" d="M571.23,435.28l0.06-5.88s0.12-1.6.49-1.54,0.47,1.81.43,2.56c0,0.46,0,2.94,0,5.29" transform="translate(-565.71 -370.1)"/><path class="cls-4" d="M576.52,430.41c0.05-.71-0.11-2.4-0.68-2.45s-0.76,1.48-.76,1.48L575,436.66l1.48,0.41C576.48,434.52,576.54,431,576.52,430.41Z" transform="translate(-565.71 -370.1)"/><path class="cls-4" d="M574,430.2c0-.75-0.08-2.5-0.5-2.56s-0.56,1.55-.56,1.55l-0.08,6.76,1.09,0.39C573.94,433.78,574,430.71,574,430.2Z" transform="translate(-565.71 -370.1)"/><path class="cls-4" d="M572.21,430.41c0-.75-0.07-2.5-0.43-2.56s-0.49,1.54-.49,1.54l-0.06,5.88,0.94,0.41C572.2,433.35,572.22,430.87,572.21,430.41Z" transform="translate(-565.71 -370.1)"/><path class="cls-9" d="M594.91,411.13c-2.16,0-2.2,2.6-2.2,2.6v6.87l4.32-.16v-6.32C597,413.88,597.07,411.13,594.91,411.13Z" transform="translate(-565.71 -370.1)"/><path class="cls-9" d="M588.46,412c-1.79,0-1.83,2.46-1.83,2.46V421l3.59-.16v-6C590.22,414.62,590.25,412,588.46,412Z" transform="translate(-565.71 -370.1)"/><path class="cls-9" d="M579.6,413.28c-1.17,0-1.19,2.33-1.19,2.33v5.95l2.34-.14V416C580.75,415.74,580.77,413.28,579.6,413.28Z" transform="translate(-565.71 -370.1)"/><path class="cls-9" d="M583.64,412.38c-1.51,0-1.54,2.49-1.54,2.49v6.57l3-.37v-5.82C585.12,415,585.15,412.38,583.64,412.38Z" transform="translate(-565.71 -370.1)"/><path class="cls-9" d="M601.68,410.61A2.67,2.67,0,0,0,599,413.3v7.09l5.25-.37v-6.32C604.26,413.45,604.31,410.61,601.68,410.61Z" transform="translate(-565.71 -370.1)"/><path class="cls-9" d="M609.93,409.94a2.74,2.74,0,0,0-2.76,2.76V420l5.41,0.05v-6.92C612.58,412.85,612.63,409.94,609.93,409.94Z" transform="translate(-565.71 -370.1)"/><path class="cls-10" d="M629.09,440.23l-4.26-10.09,0.47-1.58-0.84-2.31,0.21-2.68-0.47-3.15L619,420l-2.47-9.51-0.89-1.16,0.53-1.31-0.32-1.89,0.63-.42,0.58-1.47-2.36-1.89-4.31.16-2.26-8L607.07,393l0.74-1.42-0.79-.79,0.58-.63v-3.94L606.28,385l-1.21-.05-3.68-10.88L600,372.66V371.5l-1.68-1.26c-22,6.83-25,15-25,15H573l0.55,0.92v2l-1.73,2,0.42,1.42-0.05,1.58-0.32.95,0,1.45,0.55,0.71v3.1a7.5,7.5,0,0,0-1.31,2.79l0.37,1.55v7.15a6.09,6.09,0,0,0-.29,1l-1,.87,0.16,0.24-0.18.45,0.29,0.29,0,0.37,0.37,0.84v6.88l-0.53.92v1.1l-0.42.71L570.5,425s0,7,0,8.14-0.06,1.87-.06,1.87l0.73,0.32,0.06-5.88s0.12-1.6.49-1.54,0.47,1.81.43,2.56c0,0.46,0,2.94,0,5.29l0.65,0.26,0.08-6.76s0.14-1.6.56-1.55,0.54,1.81.5,2.56c0,0.51,0,3.58-.05,6.14l1,0.33,0.12-7.23s0.19-1.53.76-1.48,0.73,1.73.68,2.45c0,0.54,0,4.11-.09,6.67l0.77,0.2,0.21-8.09s0.31-1.6,1.24-1.55,1.2,1.81,1.11,2.56-0.08,4.93-.16,7.61l1.44,0.28,0.26-8.31s0.37-1.6,1.49-1.54,1.44,1.81,1.33,2.56-0.11,5.1-.2,7.76l1.69,0.24v-8.09c0-1.46.72-2.65,1.61-2.65l0.61,0.22c0.89,0,1.61,2.73,1.61,4.2v6.77l2.66,0.25v-9.23c0-1.46.8-2.65,1.79-2.65l0.67,0.22c1,0,1.79,2.73,1.79,4.2v7.79l2.24,0.14v-9.45a2.53,2.53,0,0,1,2.33-2.69l0.87,0.22c1.29,0,2.33,2.77,2.33,4.25v7.91l2.77,0.09v-9.68a2.68,2.68,0,0,1,2.56-2.79l1,0.23c1.41,0,2.56,2.88,2.56,4.42v7.92l3.3,0v-10a2.56,2.56,0,0,1,2.56-2.56l1,0.21c1.41,0,2.56,2.64,2.56,4v8.29C626.46,440.34,629.09,440.23,629.09,440.23Z" transform="translate(-565.71 -370.1)"/><path class="cls-11" d="M581.42,405.49v-5.36s0-2.1,1.08-2.1,1,2.22,1,2.42v4.36Z" transform="translate(-565.71 -370.1)"/><path class="cls-12" d="M624.48,426.27l0.21-2.68v0c-6.75.11-45.61,0.74-54.48,0.51l-0.25.41,0.58,0.53s0,0.13,0,.34c4.48,0.25,36.64,2,54,1.1Z" transform="translate(-565.71 -370.1)"/><g class="cls-13"><polygon class="cls-6" points="48.99 32.2 51.37 34.1 50.78 35.58 50.15 36 50.47 37.9 49.94 39.22 50.84 40.38 53.32 49.91 49.57 49.76 49.26 43.01 50.21 40.38 48.84 39.11 48.84 37.84 48.84 36.05 49.36 35.1 49.1 34.37 48.99 32.2"/></g><g class="cls-13"><polygon class="cls-6" points="40.56 14.91 41.88 16.12 41.88 20.08 41.3 20.71 42.09 21.5 41.35 22.92 42.41 24.4 44.67 32.46 41.35 32.83 40.93 32.25 40.4 31.83 40.24 22.4 40.51 21.82 40.72 19.87 40.14 19.71 40.72 18.76 40.56 14.91"/></g><g class="cls-13"><polygon class="cls-6" points="32.55 0 34.23 1.26 34.23 2.42 35.66 3.85 39.35 14.76 35.92 15.23 36.03 13.07 34.92 12.12 34.66 4.74 33.81 4.38 33.87 2.58 32.5 1.58 32.39 0.9 32.71 0.42 32.55 0"/></g><path class="cls-12" d="M614.65,408.1l-0.31-1.83,0.61-.41,0.13-.32c-10.62-.08-33,0.47-44,6.19v0l-0.94.84,0.15,0.23-0.18.43,0.28,0.28,0,0.36,0.35,0.81c3.29-1.88,14-6.15,43.73-6.32Z" transform="translate(-565.71 -370.1)"/><path class="cls-4" d="M607.24,412.64v7.31h1.17v-5.77c0-3.58,2-3.87,3.39-3.66a2.44,2.44,0,0,0-1.79-.65A2.75,2.75,0,0,0,607.24,412.64Z" transform="translate(-565.71 -370.1)"/><path class="cls-4" d="M601,414.78c0-2.66,1.06-3.67,1.78-4.05a2.8,2.8,0,0,0-1-.17,2.68,2.68,0,0,0-2.69,2.69v7.12l1.91-.13v-5.45Z" transform="translate(-565.71 -370.1)"/><path class="cls-4" d="M594.45,416.17c0-3.17.68-4.44,1.3-4.94a2,2,0,0,0-.82-0.16c-2.17,0-2.21,2.61-2.21,2.61v6.89l1.72-.06v-4.34Z" transform="translate(-565.71 -370.1)"/><path class="cls-4" d="M588.46,412c-1.8,0-1.84,2.47-1.84,2.47v6.52l2.23-.1v-3.49c0-2.88.45-4.12,0.91-4.63A1.45,1.45,0,0,0,588.46,412Z" transform="translate(-565.71 -370.1)"/><path class="cls-4" d="M584.86,413.41a1.35,1.35,0,0,0-1.23-1.08c-1.51,0-1.54,2.5-1.54,2.5v6.59l2.18-.27c0-.67,0-1.64,0-3.06A11.76,11.76,0,0,1,584.86,413.41Z" transform="translate(-565.71 -370.1)"/><path class="cls-4" d="M578.3,421.49v-6.08s0-2.38,1.22-2.38,1.17,2.52,1.17,2.74v5.58Z" transform="translate(-565.71 -370.1)"/><path class="cls-4" d="M603.41,393.74a2.07,2.07,0,0,0-1.82-.87,2.43,2.43,0,0,0-2.43,2.44v6.45l1.56-.11c0-.87-0.05-2.33-0.05-4.53C600.66,394.4,602.33,393.83,603.41,393.74Z" transform="translate(-565.71 -370.1)"/><path class="cls-4" d="M595.43,394.29c-2,0-2,2.36-2,2.36v5.87l1.55-.13V398c0-2.49,1-3,1.76-3.1A1.63,1.63,0,0,0,595.43,394.29Z" transform="translate(-565.71 -370.1)"/><path class="cls-4" d="M589.94,395.47c-1.63,0-1.66,2.23-1.66,2.23v5.9l1.79-.39v-4a3.56,3.56,0,0,1,1.11-3A1.34,1.34,0,0,0,589.94,395.47Z" transform="translate(-565.71 -370.1)"/><path class="cls-4" d="M585.76,396.56c-1.37,0-1.4,2.26-1.4,2.26v5.59l1.55-.41v-2.62c0-2.61.56-3.46,1-3.73A1.28,1.28,0,0,0,585.76,396.56Z" transform="translate(-565.71 -370.1)"/><path class="cls-4" d="M581.41,405.43v-5.34s0-2.09,1.07-2.09,1,2.21,1,2.41v4.34Z" transform="translate(-565.71 -370.1)"/><polygon class="cls-4" points="31.61 14.16 32.89 14.16 32.96 15.22 31.76 15.65 31.61 14.16"/><polygon class="cls-4" points="21.15 17.27 21.86 17.34 22.07 18.19 21.43 18.55 21.15 17.27"/><polygon class="cls-4" points="25.89 7.94 27.37 7.59 27.23 11.05 26.03 11.26 25.89 7.94"/><polygon class="cls-4" points="17.05 12.46 18.04 11.76 18.11 14.59 17.4 14.87 17.05 12.46"/><polygon class="cls-4" points="11.96 16.28 12.88 15.86 12.88 17.84 12.1 18.26 11.96 16.28"/><path class="cls-4" d="M638.3,430.89a2.48,2.48,0,0,0-2.36-2.7,2.34,2.34,0,0,0-.91.19,4.89,4.89,0,0,1,.91,3.38v5.06l2.29,1.15,0.07,0v-7Z" transform="translate(-565.71 -370.1)"/><path class="cls-4" d="M628.39,428.47a5.81,5.81,0,0,1,.66,3c0,3.28.13,4.45,0.13,4.45l2.1,2.32V430.5A3.42,3.42,0,0,0,628.39,428.47Z" transform="translate(-565.71 -370.1)"/></g></g></svg>