<svg xmlns="http://www.w3.org/2000/svg" xmlns:xlink="http://www.w3.org/1999/xlink" viewBox="0 0 107.33 72.53"><defs><style>.cls-1,.cls-11{fill:none;}.cls-2{isolation:isolate;}.cls-3{opacity:0.05;}.cls-3,.cls-6,.cls-9{mix-blend-mode:multiply;}.cls-4{fill:#b8b797;}.cls-5{fill:#939583;}.cls-6{fill:#bec4b4;opacity:0.4;}.cls-7{fill:#ffcd1c;}.cls-8{opacity:0.3;mix-blend-mode:color-burn;}.cls-9{opacity:0.1;}.cls-10{clip-path:url(#clip-path);}.cls-11{stroke:#000;stroke-miterlimit:10;}.cls-12{fill:#666a68;}</style><clipPath id="clip-path" transform="translate(-422.33 -370.5)"><polygon class="cls-1" points="484.5 437.5 465.5 437.5 469 388.5 481 388.5 484.5 437.5"/></clipPath></defs><title>landmarks_aztec</title><g class="cls-2"><g id="aztec_temple" data-name="aztec temple"><ellipse class="cls-3" cx="53.67" cy="66.5" rx="53.67" ry="4.5"/><rect class="cls-4" x="3.67" y="60" width="98" height="7"/><rect class="cls-4" x="8.67" y="53" width="88" height="7"/><rect class="cls-4" x="13.67" y="46" width="78" height="7"/><rect class="cls-4" x="18.67" y="39" width="68" height="7"/><rect class="cls-4" x="23.67" y="32" width="58" height="7"/><rect class="cls-4" x="28.67" y="25" width="48" height="7"/><rect class="cls-4" x="33.67" y="18" width="38" height="7"/><rect class="cls-4" x="38.67" width="28" height="18"/><rect class="cls-5" x="36.67" width="32" height="4"/><rect class="cls-5" x="36.67" y="6" width="32" height="4"/><rect class="cls-6" x="3.67" y="65" width="98" height="2"/><rect class="cls-6" x="8.67" y="58" width="88" height="2"/><rect class="cls-6" x="13.67" y="51" width="78" height="2"/><rect class="cls-6" x="18.67" y="44" width="68" height="2"/><rect class="cls-6" x="23.67" y="37" width="58" height="2"/><rect class="cls-6" x="28.67" y="30" width="48" height="2"/><rect class="cls-6" x="33.67" y="23" width="38" height="2"/><polygon class="cls-7" points="62.17 67 43.17 67 46.67 18 58.67 18 62.17 67"/><polygon class="cls-8" points="59.67 67 45.67 67 48.67 18 56.67 18 59.67 67"/><g class="cls-9"><g class="cls-10"><line class="cls-11" x1="35.33" y1="18.03" x2="65.67" y2="18.03"/><line class="cls-11" x1="35.41" y1="19.88" x2="65.74" y2="19.88"/><line class="cls-11" x1="35.49" y1="21.93" x2="65.82" y2="21.93"/><line class="cls-11" x1="35.56" y1="23.97" x2="65.9" y2="23.97"/><line class="cls-11" x1="35.64" y1="25.92" x2="65.97" y2="25.92"/><line class="cls-11" x1="35.72" y1="27.96" x2="66.05" y2="27.96"/><line class="cls-11" x1="35.79" y1="30.11" x2="66.13" y2="30.11"/><line class="cls-11" x1="35.87" y1="31.96" x2="66.21" y2="31.96"/><line class="cls-11" x1="35.95" y1="34" x2="66.28" y2="34"/><line class="cls-11" x1="36.03" y1="35.95" x2="66.36" y2="35.95"/><line class="cls-11" x1="36.1" y1="37.89" x2="66.44" y2="37.89"/><line class="cls-11" x1="36.18" y1="39.94" x2="66.51" y2="39.94"/><line class="cls-11" x1="36.26" y1="41.89" x2="66.59" y2="41.89"/><line class="cls-11" x1="36.33" y1="44.03" x2="66.67" y2="44.03"/><line class="cls-11" x1="37.33" y1="46.03" x2="67.67" y2="46.03"/><line class="cls-11" x1="37.41" y1="47.88" x2="67.74" y2="47.88"/><line class="cls-11" x1="37.49" y1="49.93" x2="67.82" y2="49.93"/><line class="cls-11" x1="37.56" y1="51.97" x2="67.9" y2="51.97"/><line class="cls-11" x1="37.64" y1="53.92" x2="67.97" y2="53.92"/><line class="cls-11" x1="37.72" y1="55.96" x2="68.05" y2="55.96"/><line class="cls-11" x1="37.79" y1="58.11" x2="68.13" y2="58.11"/><line class="cls-11" x1="37.87" y1="59.96" x2="68.21" y2="59.96"/><line class="cls-11" x1="37.95" y1="62" x2="68.28" y2="62"/><line class="cls-11" x1="38.03" y1="63.95" x2="68.36" y2="63.95"/><line class="cls-11" x1="38.1" y1="65.89" x2="68.44" y2="65.89"/><line class="cls-11" x1="38.18" y1="67.94" x2="68.51" y2="67.94"/><line class="cls-11" x1="38.26" y1="69.89" x2="68.59" y2="69.89"/><line class="cls-11" x1="38.33" y1="72.03" x2="68.67" y2="72.03"/></g></g><rect class="cls-12" x="50.67" y="12.5" width="4" height="5.33"/><polygon class="cls-6" points="41.42 66.75 42.92 66.75 46.92 17.75 45.42 17.75 41.42 66.75"/><polygon class="cls-6" points="63.92 66.75 62.42 66.75 58.42 17.75 59.92 17.75 63.92 66.75"/></g></g></svg>